<svg width="98" height="98" fill="none" xmlns="http://www.w3.org/2000/svg">
  <path d="M35.0221 68.8455C16.1408 68.8455 0.775879 53.4035 0.775879 34.4273C0.775879 15.4512 16.1289 0.00915527 35.0221 0.00915527C53.9153 0.00915527 69.2683 15.4512 69.2683 34.4273C69.2683 53.4035 53.9034 68.8455 35.0221 68.8455ZM35.0221 2.39315C17.4401 2.39315 3.14797 16.769 3.14797 34.4273C3.14797 52.0857 17.452 66.4615 35.0221 66.4615C52.5922 66.4615 66.9081 52.0857 66.9081 34.4273C66.9081 16.769 52.5922 2.39315 35.0221 2.39315Z" fill="#D5672E"/>
  <path d="M50.7089 45.4246C40.3266 45.4246 35.189 42.2499 32.6739 39.3867C28.0728 41.3634 21.7313 42.6093 13.3873 42.226L13.5185 39.243C21.1711 39.5904 26.8689 38.4882 30.9574 36.823C29.086 32.9655 29.9204 28.8923 31.6607 26.4604C33.3176 24.1363 35.8208 23.0462 38.3478 23.5613C41.2325 24.1363 42.8655 26.3766 42.5199 29.2637C42.198 31.9592 39.9809 35.3495 35.4513 37.9971C39.1823 41.615 46.5846 43.1125 56.359 42.1541L56.6451 45.1251C54.4995 45.3407 52.5207 45.4366 50.7089 45.4366V45.4246ZM37.1201 26.4245C35.5347 26.4245 34.4858 27.6345 34.0805 28.2095C32.8646 29.9106 32.3044 32.7858 33.6514 35.5412C37.5611 33.3369 39.361 30.6414 39.5756 28.9043C39.7425 27.5746 39.1346 26.7719 37.7757 26.4964C37.5492 26.4484 37.3346 26.4365 37.132 26.4365L37.1201 26.4245Z" fill="#D5672E"/>
</svg>