<svg width="99" height="86" viewBox="0 0 99 86" fill="none" xmlns="http://www.w3.org/2000/svg">
    <g clip-path="url(#clip0_265_62)">
        <path d="M49.07 31.77C56.09 31.77 61.44 34.74 65.13 40.45C66.8 43.04 68.14 45.89 69.24 48.77C70.34 51.68 71.94 54.02 74.4 55.92C77.53 58.34 79.95 61.3 81.05 65.24C83.62 74.5 79.04 82.76 70 84.95C66.23 85.86 62.66 85.16 59.12 83.72C56.57 82.68 53.96 81.72 51.28 81.13C48.05 80.42 44.93 81.28 41.87 82.49C39.16 83.56 36.39 84.74 33.55 85.18C24.18 86.63 15.94 78.61 16.71 69.21C17.12 64.16 19.04 59.94 23.01 56.84C26.18 54.36 28.51 51.46 29.61 47.54C30.1 45.8 31.55 45.2 32.97 45.76C34.42 46.33 34.83 47.6 34.34 49.36C33.06 53.91 30.52 57.52 26.7 60.35C23.65 62.61 22.04 65.72 21.8 69.59C21.29 77.79 29.02 81.95 35.7 79.6C37.01 79.14 38.28 78.59 39.54 78.01C46.04 75.03 52.5 75.11 59.02 78.04C60.97 78.92 63.03 79.81 65.12 80.1C69.27 80.68 72.92 79.36 75.17 75.65C77.47 71.86 77.13 67.85 75.01 64.09C74.19 62.63 72.95 61.28 71.61 60.27C68.03 57.55 65.74 54.11 64.19 49.89C63.12 46.97 61.57 44.07 59.61 41.67C54.57 35.49 45.42 35.18 39.62 40.66C39.42 40.85 39.23 41.06 39.02 41.23C37.77 42.28 36.49 42.3 35.44 41.27C34.36 40.21 34.37 38.82 35.53 37.58C39.22 33.6 43.84 31.8 49.08 31.77H49.07Z" fill="white"/>
        <path d="M78.28 13.57C78.03 19.47 76.28 24.32 72.26 28.16C65.47 34.64 56.18 32.38 53.44 23.44C51.16 16.02 53.05 9.36003 58.42 3.85003C61.59 0.60003 65.56 -0.91997 70.11 0.56003C74.64 2.03003 76.79 5.64003 77.83 10.02C78.14 11.3 78.17 12.65 78.29 13.56L78.28 13.57ZM73.19 13.44C73.06 12.7 72.96 11.58 72.67 10.52C71.04 4.63003 66.01 3.30003 61.75 7.70003C58.14 11.44 56.98 16.01 58.01 21.06C58.54 23.65 59.81 25.94 62.64 26.62C65.31 27.26 67.37 25.9 69.13 24.08C71.89 21.22 72.98 17.68 73.18 13.44H73.19Z" fill="white"/>
        <path d="M20.16 14.46C20.2 10.77 20.86 7.89 22.48 5.27C25.59 0.210003 31.44 -1.43 36.65 1.41C41.81 4.21 44.43 8.85 45.5 14.43C46.42 19.2 45.77 23.74 42.77 27.7C39.69 31.77 34.75 33.01 30.13 30.83C24.55 28.2 21.79 23.43 20.54 17.62C20.27 16.38 20.23 15.1 20.15 14.46H20.16ZM40.85 18.81C40.48 13.38 39.12 9.25 35.17 6.47C31.63 3.97 27.91 5.08 26.21 9.06C25.2 11.42 25.01 13.88 25.5 16.4C26.25 20.3 27.92 23.67 31.42 25.81C34.53 27.72 37.81 26.86 39.41 23.58C40.24 21.88 40.54 19.92 40.86 18.82L40.85 18.81Z" fill="white"/>
        <path d="M9.98999 25.7301C13.33 25.7301 16.19 27.0301 18.58 29.2201C23.71 33.9401 26.28 39.6701 24.47 46.6901C23.02 52.3301 17.79 55.1601 12.19 53.6501C3.99999 51.4401 -1.78001 41.2901 0.499993 33.1101C1.76999 28.5401 5.41999 25.7101 9.98999 25.7301ZM19.93 42.8601C19.92 37.9501 16.62 32.9301 12.34 31.2901C8.63999 29.8701 5.45999 31.7301 5.16999 35.6201C4.78999 40.8401 6.96999 44.8901 11.29 47.7401C13.18 48.9901 15.34 49.5101 17.43 48.3201C19.48 47.1601 19.96 45.0801 19.93 42.8601Z" fill="white"/>
        <path d="M98.33 38.66C97.89 43.79 95.09 48.86 89.55 52.2C86.03 54.33 82.25 54.93 78.49 52.77C74.67 50.57 73.23 46.9 73.36 42.76C73.57 36.15 76.55 30.92 82.27 27.49C85.86 25.34 89.69 24.86 93.49 27.08C96.77 29 98.61 32.97 98.33 38.65V38.66ZM78.48 42.63C78.39 47.59 81.5 50.08 85.74 48.44C90.53 46.59 94.16 40.15 93.22 35.17C92.53 31.53 89.64 29.93 86.13 31.25C81.92 32.83 78.57 37.81 78.48 42.62V42.63Z" fill="white"/>
    </g>
    <defs>
        <clipPath id="clip0_265_62">
            <rect width="98.36" height="85.36" fill="white"/>
        </clipPath>
    </defs>
</svg>