<svg width="87" height="126" viewBox="0 0 87 126" fill="none" xmlns="http://www.w3.org/2000/svg">
    <g clip-path="url(#clip0_265_112)">
        <path d="M72.31 0C73.66 0.49 75.06 0.88 76.35 1.5C78.92 2.74 81.42 4.11 83.95 5.44C86.89 6.99 87.69 9.48 86.17 12.42C84.05 16.5 81.92 20.58 79.8 24.66C78.12 27.88 76.96 28.51 73.35 28.08C71.99 30.68 70.63 33.3 69.25 35.92C69.07 36.26 68.89 36.64 68.61 36.9C67.99 37.47 67.25 37.53 66.56 37.02C65.83 36.48 65.7 35.73 66.11 34.93C67.37 32.49 68.64 30.05 69.92 27.63C70.1 27.29 70.39 27 70.57 26.77C68.78 25.82 67.22 24.99 65.73 24.19C58.71 37.67 51.65 51.23 44.89 64.21C46.33 64.98 47.88 65.82 49.43 66.66L49.25 67.17C49.44 66.84 49.64 66.51 49.81 66.17C53.97 58.2 58.12 50.23 62.28 42.27C62.44 41.95 62.6 41.63 62.79 41.33C63.3 40.57 64.01 40.37 64.84 40.74C65.64 41.09 66 41.96 65.62 42.8C65.07 44 64.43 45.16 63.83 46.33C63.29 47.37 62.73 48.41 62.15 49.52C62.46 49.81 62.74 50.07 63.02 50.32C66.7 53.52 69.45 57.38 70.9 62.04C73.18 69.34 71.79 76.21 67.95 82.64C66.75 84.65 65.21 86.45 63.87 88.38C63.62 88.74 63.43 89.27 63.47 89.69C64.12 95.78 63.89 101.79 61.58 107.55C57.82 116.93 50.8 122.47 41 124.52C27.33 127.38 12.03 121.11 4.43 108.13C-1.09 98.7 -1.64 89.02 3.79 79.29C4.6 77.84 6.09 77.68 6.84 78.92C7.32 79.72 6.92 80.42 6.51 81.11C4.21 85.06 3.09 89.31 3.34 93.88C3.76 101.72 7.16 108.19 12.87 113.41C20.08 120 28.64 122.87 38.34 121.68C50.9 120.14 59.31 111.16 60.33 98.35C60.56 95.5 60.32 92.6 60.09 89.74C59.99 88.46 60.21 87.52 61.07 86.56C64.61 82.59 67.29 78.14 68.32 72.83C69.76 65.39 66.71 57.36 60.62 52.63C60.46 52.9 60.28 53.14 60.14 53.41C57.4 58.66 54.67 63.91 51.91 69.15C51.61 69.72 51.6 70.16 51.91 70.72C55.07 76.57 52.45 83.81 46.76 86.67C41.21 89.46 33.83 87.11 31.11 81.49C28.29 75.66 30.29 69.07 35.94 65.93C37.22 65.22 38.76 64.99 40.16 64.51C40.49 64.4 40.93 64.25 41.07 63.98C44.02 58.4 46.93 52.81 49.9 47.13C46.58 46.28 43.32 46.09 40.04 46.74C31.66 48.4 26.72 53.92 23.7 61.5C23.02 63.21 22.56 65.02 22.06 66.8C21.84 67.6 21.49 68.18 20.71 68.58C17.27 70.32 14.07 72.43 11.26 75.09C10.42 75.89 9.43 75.9 8.79 75.21C8.11 74.47 8.21 73.52 9.09 72.67C11.78 70.09 14.82 68 18.1 66.27C18.76 65.92 19.01 65.48 19.18 64.83C20.65 59.27 22.98 54.13 27.14 50.04C33.7 43.6 41.57 41.91 50.38 43.87C50.72 43.95 51.06 44.02 51.35 44.08C55.11 36.84 58.85 29.67 62.6 22.45C62.26 22.05 61.79 21.61 61.45 21.09C60.46 19.55 60.46 17.93 61.3 16.32C63.65 11.79 65.99 7.26 68.39 2.76C68.79 2 69.48 1.4 70.04 0.73C70.79 0.49 71.54 0.26 72.29 0.02L72.31 0ZM75.52 25.07C75.86 24.68 76.23 24.38 76.44 24C78.76 19.59 81.07 15.16 83.36 10.73C83.92 9.64 83.73 9.01 82.65 8.44C79.63 6.84 76.59 5.26 73.55 3.69C72.4 3.1 71.78 3.29 71.18 4.42C68.88 8.81 66.59 13.2 64.31 17.6C63.74 18.7 63.95 19.41 65.04 19.99C68.07 21.59 71.1 23.17 74.14 24.73C74.53 24.93 75 24.96 75.51 25.09L75.52 25.07ZM33.51 78.62C34.91 83.12 39.67 85.63 44.11 84.22C48.5 82.83 50.99 78.07 49.65 73.64C48.32 69.23 43.54 66.7 39.13 68.06C34.57 69.47 32.11 74.1 33.52 78.61L33.51 78.62Z" fill="white"/>
        <path d="M41.83 99.1499C42.45 101.36 42.01 103.35 40.31 104.9C38.59 106.47 36.48 106.99 34.37 105.96C29.92 103.79 25.52 101.5 21.2 99.0999C18.59 97.6499 17.85 94.3399 19.25 91.7199C20.64 89.1199 23.82 87.9899 26.49 89.3199C30.79 91.4699 35.04 93.7299 39.29 95.9799C40.57 96.6599 41.41 97.7399 41.83 99.1499ZM36.85 103.17C38.08 102.73 38.66 102.1 38.8 101.14C38.97 100.01 38.44 99.1899 37.48 98.6899C33.45 96.5599 29.41 94.4499 25.36 92.3699C24.05 91.6999 22.65 92.1599 22.07 93.3599C21.48 94.5599 21.89 95.8299 23.19 96.5099C27.22 98.6399 31.26 100.75 35.32 102.82C35.85 103.09 36.52 103.1 36.86 103.18L36.85 103.17Z" fill="white"/>
    </g>
    <defs>
        <clipPath id="clip0_265_112">
            <rect width="86.92" height="125.19" fill="white"/>
        </clipPath>
    </defs>
</svg>