<svg width="46" height="114" viewBox="0 0 46 114" fill="none" xmlns="http://www.w3.org/2000/svg">
    <g clip-path="url(#clip0_265_87)">
        <path d="M37.7 113.22C36.12 113.24 33.61 113.29 31.09 113.3C23.98 113.33 16.87 113.3 9.75999 113.38C4.61999 113.43 -0.200008 109.8 0.139992 103.69C0.249992 101.77 0.119992 99.8401 0.109992 97.9101C0.0699925 84.1001 -0.0400075 70.2901 0.0199925 56.4901C0.0499925 49.2301 2.92999 43.2201 8.65999 38.6401C9.03999 38.3401 9.35999 37.7901 9.42999 37.3101C10.44 30.0401 11.41 22.7601 12.36 15.4701C12.42 15.0401 12.14 14.5601 11.99 14.1201C11.63 13.0601 11.01 12.0301 10.92 10.9601C10.74 8.86007 10.85 6.75006 10.84 4.64006C10.83 2.35006 12.68 0.170065 15 0.110065C19.91 6.47306e-05 24.82 -0.0399353 29.73 0.0500647C32.24 0.100065 34.03 2.15006 34.1 4.69006C34.15 6.71006 34.27 8.74006 34.1 10.7401C34.01 11.8301 33.4 12.8701 33.07 13.9501C32.89 14.5201 32.65 15.1501 32.72 15.7101C33.68 22.7701 34.68 29.8201 35.73 36.8601C35.83 37.5001 36.19 38.2701 36.69 38.6501C40.79 41.8101 43.29 45.9901 44.61 50.9201C45.83 55.4801 45.3 60.1501 45.34 64.7701C45.46 77.8401 45.44 90.9201 45.47 103.99C45.48 108.55 43.01 111.8 37.69 113.23L37.7 113.22ZM39.75 58.5301C28.29 58.5701 16.98 58.6101 5.59999 58.6501C5.63999 70.9201 5.67999 83.0501 5.71999 95.2801C17.21 95.2401 28.48 95.2101 39.86 95.1701C39.82 82.9901 39.78 70.8501 39.75 58.5301ZM28.59 25.2701C24.44 26.4001 20.57 27.4201 16.73 28.5301C16.38 28.6301 16.02 29.3101 15.97 29.7501C15.55 33.0701 15.21 36.4101 14.84 39.7401C14.72 40.8801 14.39 41.9401 13.28 42.4901C8.89999 44.6401 7.21999 48.6401 5.83999 53.0401C17.09 53.0001 28.17 52.9701 39.36 52.9301C38.5 49.2501 36.85 46.1701 34.11 43.7701C33.43 43.1801 32.34 42.9901 31.4 42.7901C30.56 42.6101 29.65 42.7801 28.81 42.6101C27.5 42.3501 26.7 41.2301 26.71 39.8901C26.71 38.6701 27.68 37.5301 28.94 37.2701C29.29 37.2001 29.65 37.1501 30.1 37.0801C29.6 33.1701 29.1 29.3101 28.58 25.2501L28.59 25.2701ZM5.74999 100.87C5.74999 102.16 5.80999 103.34 5.74999 104.52C5.68999 105.93 6.43999 106.82 7.59999 107.3C8.41999 107.64 9.36999 107.76 10.27 107.77C15.13 107.8 19.98 107.77 24.84 107.74C28.83 107.71 32.81 107.69 36.8 107.56C38.23 107.52 39.45 106.75 39.71 105.28C39.97 103.83 39.85 102.32 39.9 100.75C28.4 100.79 17.14 100.82 5.73999 100.86L5.74999 100.87ZM16.5 5.63006C16.49 6.94006 16.41 8.13006 16.5 9.30007C16.53 9.76007 16.83 10.3301 17.19 10.6101C18.2 11.4101 18.61 12.3901 18.42 13.6201C18.17 15.2501 17.89 16.8801 17.61 18.5101C17.39 19.8401 17.16 21.1701 16.92 22.5601C20.66 21.5401 24.19 20.5901 27.7 19.6301C27.34 17.5801 27.02 15.6301 26.65 13.6901C26.38 12.3001 26.83 11.2701 27.99 10.5001C28.22 10.3501 28.51 10.0701 28.51 9.84007C28.55 8.44007 28.51 7.04006 28.51 5.60006C24.48 5.61006 20.59 5.62006 16.5 5.64006V5.63006Z" fill="white"/>
        <path d="M32.78 74.12C34.32 79.6 31.06 85.4 25.52 87C20.02 88.59 14.12 85.13 12.58 79.43C11.16 74.14 14.53 68.36 19.93 66.82C25.36 65.28 31.22 68.61 32.78 74.12ZM18.08 78.08C18.78 80.75 21.28 82.25 23.9 81.57C26.52 80.89 28.14 78.14 27.41 75.58C26.71 73.1 24.07 71.58 21.56 72.22C18.98 72.88 17.4 75.53 18.07 78.07L18.08 78.08Z" fill="white"/>
        <path d="M20.54 37.4101C22.13 36.9801 23.52 37.7601 23.94 39.3201C24.35 40.8601 23.5 42.3501 21.99 42.7301C20.53 43.1001 18.97 42.1601 18.59 40.6801C18.21 39.2101 19.05 37.8101 20.54 37.4001V37.4101Z" fill="white"/>
    </g>
    <defs>
        <clipPath id="clip0_265_87">
            <rect width="45.48" height="113.39" fill="white"/>
        </clipPath>
    </defs>
</svg>