<svg width="66" height="80" viewBox="0 0 66 80" fill="none" xmlns="http://www.w3.org/2000/svg">
    <g clip-path="url(#clip0_265_85)">
        <path d="M43.4009 33.2514C35.9079 31.8121 31.9103 26.4712 30.2829 20.8552C29.6249 18.5975 29.1721 16.3681 29.1792 14.0328C29.1933 8.79773 29.5542 13.5671 29.1792 15.7895C29.1792 15.3944 29.1792 14.9993 29.1792 14.4772C28.3301 14.4772 29.0589 14.4843 28.3301 14.4772C26.7664 14.449 25.7688 13.5601 25.7617 12.1913C25.7546 10.8155 26.7452 9.88425 28.3018 9.87719C31.1108 9.85603 32.4622 9.87719 35.2711 9.87719C35.6674 9.87719 36.0636 9.87719 36.573 9.87719C36.573 9.37627 36.573 8.98117 36.573 8.58607C36.573 2.87128 36.573 8.54374 36.573 2.82895C36.573 1.12862 37.4787 0.0279984 38.8726 0.0350537C40.2664 0.0350537 41.1933 1.12862 41.1933 2.83601C41.2004 8.5508 41.1933 2.87834 41.1933 8.59313C41.1933 8.98822 41.1933 9.38332 41.1933 9.82781H50.5895C50.5895 9.43271 50.5895 9.03761 50.5895 8.64957C50.5895 2.78662 50.5895 8.31092 50.5895 2.44797C50.5895 1.3685 51.0636 0.634754 52.0612 0.211436C52.9528 -0.16955 53.8584 -0.00727804 54.382 0.691196C54.8419 1.31912 55.1461 2.21514 55.1532 2.99828C55.2169 8.60018 55.1886 2.81484 55.1886 8.4238C55.1886 8.86123 55.1886 9.29866 55.1886 9.87719C56.0377 9.87719 56.8018 9.87719 57.566 9.87719C59.9716 9.87719 60.9127 9.87014 63.3183 9.87719C64.9315 9.88425 66.007 10.8226 65.9999 12.1843C65.9999 13.5459 64.9174 14.4631 63.3042 14.4843C62.6108 14.4843 63.3749 14.4843 62.5754 14.4843C62.5754 14.9923 62.5754 15.3874 62.5754 15.7825C62.5754 21.0175 62.5754 8.79068 62.5754 14.0257C62.5754 23.8114 58.4433 31.3394 48.7853 33.1456C48.4457 33.2091 47.9928 33.6818 47.9362 34.0204C46.3726 42.9101 38.9433 49.0976 29.7169 49.1046C10.3089 49.1187 30.4881 49.1046 11.073 49.1188C10.224 49.1188 9.35369 49.1329 8.54001 49.3304C6.15558 49.916 4.6202 52.1596 4.73341 54.7489C4.82539 57.0348 6.62963 59.0667 8.97869 59.4689C9.66501 59.5888 10.3726 59.6241 11.073 59.6241C40.0966 59.6311 21.9197 59.6453 50.9433 59.617C55.4999 59.617 58.8891 61.4655 60.8561 65.5576C63.9834 72.0908 59.1509 79.9292 51.8844 79.9645C35.4339 80.0492 18.9763 79.9998 2.52586 79.9927C1.02586 79.9927 -0.0425354 78.9556 0.00699288 77.6292C0.0565212 76.2675 1.12492 75.3856 2.76643 75.3856C14.5612 75.3856 26.356 75.3856 38.1509 75.3856C42.665 75.3856 47.1721 75.3997 51.6862 75.3786C54.4669 75.3644 56.8655 73.2267 57.1697 70.5598C57.4952 67.7236 55.7829 65.0919 53.073 64.4076C52.2664 64.203 51.3891 64.203 50.54 64.203C21.5872 64.1959 39.8419 64.1818 10.8961 64.203C7.26643 64.203 4.19567 63.1306 2.03058 60.1321C-0.205271 57.0419 -0.56612 53.6553 1.06831 50.2123C2.7169 46.7482 5.55416 44.8362 9.44567 44.5963C9.99756 44.561 10.5565 44.561 11.1084 44.561C30.4103 44.561 10.1178 44.561 29.4197 44.561C35.6815 44.561 40.6556 41.2521 42.7075 35.749C42.9976 34.9658 43.1603 34.1404 43.4079 33.2655L43.4009 33.2514ZM57.9551 14.5619H33.8207C33.7924 14.7736 33.757 14.9217 33.757 15.0628C33.757 20.7353 33.6579 8.95295 33.7782 14.6254C33.9551 22.5203 37.691 28.482 45.4244 28.7501C53.3914 29.0323 57.8844 22.6755 57.941 14.7242C57.9693 10.8579 57.941 15.338 57.948 11.4717C57.948 9.48915 57.948 16.615 57.948 14.5619H57.9551Z" fill="white"/>
    </g>
    <defs>
        <clipPath id="clip0_265_85">
            <rect width="66" height="80" fill="white"/>
        </clipPath>
    </defs>
</svg>