<svg width="43" height="114" viewBox="0 0 43 114" fill="none" xmlns="http://www.w3.org/2000/svg">
    <g clip-path="url(#clip0_265_91)">
        <path d="M40.19 0C41.71 1.1 42.12 2.57 42.11 4.44C42.03 16.73 42.11 29.02 42.05 41.31C42.01 49.05 38.42 54.77 31.69 58.5C30.73 59.03 30.43 59.58 30.43 60.64C30.46 90.82 30.45 73.53 30.45 103.71C30.45 107.57 28.72 110.47 25.34 112.23C22.01 113.96 18.65 113.7 15.57 111.53C12.88 109.62 11.6 106.94 11.61 103.61C11.63 73.59 11.61 91.03 11.65 61.01C11.65 59.63 11.24 58.96 10.02 58.29C4.73 55.38 1.51 50.88 0.299998 44.95C0.249998 44.71 0.0999979 44.49 -0.0100021 44.27C-2.13645e-06 29.51 -2.13645e-06 14.76 -2.13645e-06 0H4.4C5.92 1.1 6.34 2.57 6.32 4.44C6.24 14.74 6.28 25.05 6.28 35.35V36.97H11.94V35.2C11.94 24.95 11.98 14.7 11.9 4.45C11.88 2.58 12.3 1.11 13.82 0.01H16.33C17.85 1.11 18.27 2.58 18.25 4.45C18.17 14.75 18.21 25.06 18.21 35.36C18.21 35.91 18.21 36.46 18.21 36.98H23.87V35.21C23.87 24.96 23.91 14.71 23.83 4.46C23.81 2.59 24.23 1.12 25.75 0.02H28.26C29.78 1.12 30.2 2.59 30.18 4.46C30.1 14.76 30.14 25.07 30.14 35.37C30.14 35.92 30.14 36.47 30.14 36.99H35.8V35.22C35.8 24.97 35.84 14.72 35.76 4.47C35.74 2.6 36.16 1.13 37.68 0.03H40.19V0ZM6.46 43.39C7.49 48.45 10.28 51.81 14.92 53.62C17.46 54.61 17.89 55.15 17.89 57.88C17.89 87.6 17.89 69.86 17.89 99.58C17.89 100.84 17.87 102.09 17.89 103.35C17.93 105.48 19.2 106.97 20.98 107C22.81 107.04 24.13 105.5 24.17 103.29C24.17 102.92 24.17 102.56 24.17 102.19C24.17 89 24.17 107.33 24.17 94.14C24.17 76.72 24.17 75.25 24.17 57.82C24.17 55.19 24.63 54.55 27.05 53.65C27.73 53.4 28.41 53.11 29.04 52.75C32.64 50.67 34.82 47.61 35.57 43.4H6.46V43.39Z" fill="white"/>
    </g>
    <defs>
        <clipPath id="clip0_265_91">
            <rect width="42.11" height="113.39" fill="white"/>
        </clipPath>
    </defs>
</svg>