<svg width="95" height="95" viewBox="0 0 95 95" fill="none" xmlns="http://www.w3.org/2000/svg">
    <g clip-path="url(#clip0_265_81)">
        <path d="M93.986 12.1819C93.4665 10.5984 91.8996 10.2549 90.7014 11.4194C89.5033 12.584 88.3386 13.7737 87.1572 14.955C85.3641 16.748 83.5794 18.5409 81.8952 20.2165C79.5324 17.879 77.2198 15.5834 74.8653 13.2459C77.7225 10.3889 80.6384 7.49008 83.5375 4.58286C85.0205 3.09154 84.6854 1.57509 82.6912 0.955111C81.4344 0.569715 80.1356 0.309992 78.8537 0H74.7731C74.6391 0.0586471 74.505 0.150807 74.3626 0.167563C63.8471 1.77617 57.0853 11.2519 59.0543 21.6911C59.18 22.3362 59.0543 22.6964 58.5935 23.1154C54.6135 26.8185 50.6503 30.5468 46.6787 34.2667C46.0503 34.8532 7.01296 71.4406 3.82898 74.4149C2.21185 75.9229 1.0807 77.7326 0.469041 79.8607C0.301463 80.4471 0.159022 81.042 0.0082016 81.6285V84.7786C0.0668539 84.8792 0.150643 84.9797 0.167401 85.097C1.06394 89.8809 3.79547 93.1065 8.46251 94.4554C13.1463 95.8127 17.252 94.5727 20.6203 91.0371C23.4524 88.0629 26.2509 85.0384 29.0662 82.0474C29.2254 81.8798 29.4182 81.729 29.7282 81.4525C29.946 81.7458 66.2099 44.0943 65.3636 43.3235C67.6343 40.8938 69.7542 38.6485 71.8573 36.3864C72.2679 35.9423 72.6282 35.7664 73.2901 35.9172C74.3039 36.1518 75.368 36.2104 76.4154 36.2775C77.689 36.3529 78.6191 35.5653 78.6442 34.4426C78.6777 33.387 77.8231 32.5911 76.583 32.4989C75.9378 32.4486 75.2843 32.4319 74.6475 32.323C68.2879 31.2673 63.2438 26.0728 62.54 19.8814C61.8026 13.3799 65.305 7.34765 71.3294 4.84258C73.6923 3.86233 76.1557 3.44343 78.8537 3.9126C78.5604 4.23097 78.3593 4.45718 78.1498 4.66664C75.8121 7.00415 73.466 9.34165 71.1367 11.6875C69.8966 12.9359 69.8966 13.824 71.1451 15.0723C74.0945 18.0214 77.0438 20.9789 80.0016 23.928C81.3171 25.2434 82.155 25.2518 83.4621 23.9448C85.7579 21.6492 88.0537 19.3536 90.3495 17.0579C90.559 16.8485 90.7852 16.6558 91.0701 16.3961C91.1288 16.7647 91.1874 17.0077 91.1958 17.2506C91.3466 20.3254 90.626 23.174 89.0257 25.8131C88.3805 26.8771 88.6486 27.9998 89.6122 28.5444C90.5506 29.0806 91.598 28.779 92.2264 27.7401C95.1925 22.8221 95.7791 17.6277 93.986 12.1735V12.1819ZM60.6882 27.9998C61.5848 28.5863 67.4584 33.6551 68.5811 34.3924C67.0227 36.0512 54.5716 49.339 48.941 55.3461C48.9159 55.3713 48.8907 55.4048 48.8656 55.4299C39.0958 65.8524 29.326 76.2748 19.5478 86.6889C18.6429 87.6524 17.7631 88.6829 16.7325 89.5039C13.4312 92.1347 8.51279 91.6739 5.75613 88.5572C2.95758 85.3819 3.01623 80.5058 6.04101 77.5483C9.30878 74.3478 12.6855 71.2647 16.3554 67.8129C21.3828 63.1043 25.9325 59.0493 30.0466 55.564M30.0549 55.564C55.2168 34.2164 58.384 29.4744 59.8587 28.0082L30.0549 55.564Z" fill="white"/>
        <path d="M86.4703 32.3733C86.487 33.4457 85.6994 34.2835 84.6604 34.3003C83.6466 34.3086 82.7668 33.4457 82.7668 32.4319C82.7668 31.4098 83.5293 30.6222 84.5599 30.5887C85.6575 30.5552 86.4619 31.3009 86.4703 32.3733Z" fill="white"/>
        <path d="M13.5738 83.2036C13.5906 84.2341 12.7527 85.1138 11.7388 85.1305C10.7501 85.1473 9.84521 84.2425 9.84521 83.2455C9.84521 82.2401 10.6496 81.419 11.6467 81.3939C12.7024 81.3687 13.5571 82.173 13.5738 83.2036Z" fill="white"/>
    </g>
    <defs>
        <clipPath id="clip0_265_81">
            <rect width="95" height="95" fill="white"/>
        </clipPath>
    </defs>
</svg>