<svg width="95" height="85" viewBox="0 0 95 85" fill="none" xmlns="http://www.w3.org/2000/svg">
    <g clip-path="url(#clip0_265_108)">
        <path d="M15.5614 9.45014H17.1846C41.8653 9.45014 66.5374 9.45014 91.218 9.45014C91.592 9.45014 91.9574 9.44169 92.3314 9.45014C94.4221 9.52614 95.4164 10.852 94.847 12.8788C94.1501 15.3533 93.4192 17.8192 92.7053 20.2937C90.3681 28.4178 88.0395 36.542 85.6938 44.6662C85.0479 46.9042 84.5294 47.2758 82.1243 47.2758C62.5684 47.2758 43.0126 47.2758 23.4568 47.2758H22.0205C22.08 52.233 23.8817 56.6836 30.1539 56.6836C47.5935 56.6836 65.0331 56.6836 82.4812 56.6836C82.9232 56.6836 83.3821 56.6583 83.807 56.7596C84.8014 57.0045 85.5748 58.0602 85.5578 59.0651C85.5408 60.1377 84.7164 61.1342 83.6286 61.3284C83.1951 61.4044 82.7447 61.4213 82.3027 61.4213C64.8971 61.4213 47.4915 61.4298 30.0859 61.4213C23.7203 61.4213 18.8929 57.6717 17.7371 51.8023C17.1931 49.0577 16.8022 46.2877 16.3433 43.5346C15.1194 36.2465 13.9041 28.9583 12.6803 21.6702C12.0598 17.9712 11.4479 14.2723 10.785 10.5818C10.1986 7.33886 7.65745 5.10091 4.3599 4.84755C3.6545 4.79688 2.94909 4.82222 2.25219 4.75466C0.798886 4.60264 -0.0764938 3.59768 -4.26453e-06 2.23801C0.0849841 0.945914 1.05385 0.126738 2.45616 0.0338418C9.02576 -0.413749 14.0316 3.46255 15.5614 9.45014ZM21.0346 42.4874H81.3254C84.0195 33.1049 86.7221 23.7308 89.4418 14.2638H16.3008C17.8815 23.6886 19.4538 33.0458 21.0346 42.4874Z" fill="white"/>
        <path d="M28.6241 66.1083C33.9359 66.2266 38.1513 70.5336 38.0068 75.7104C37.8623 81.1491 33.5789 85.1098 27.9867 84.9916C22.8704 84.8818 18.8844 80.4481 19.0034 75.0179C19.1139 70.1282 23.5758 65.9986 28.6241 66.1083ZM28.5051 80.237C31.1142 80.237 33.2729 78.0835 33.2475 75.5246C33.222 72.9742 30.9953 70.8038 28.4456 70.846C25.896 70.8883 23.8137 72.9827 23.8052 75.5331C23.7882 78.1595 25.8705 80.237 28.5136 80.237H28.5051Z" fill="white"/>
        <path d="M71.2373 66.1083C76.498 66.0829 80.7815 70.3393 80.773 75.5752C80.773 80.7859 76.549 84.9915 71.3307 85C66.0445 85.0084 61.7866 80.8788 61.7526 75.7188C61.7271 70.3562 65.9 66.1252 71.2373 66.1083ZM66.5629 75.5583C66.5629 78.1848 68.6536 80.2538 71.2967 80.2369C73.8634 80.22 75.9711 78.151 76.0136 75.6175C76.0476 73.0924 73.8549 70.8798 71.2967 70.8544C68.7216 70.8291 66.5629 72.9741 66.5629 75.5668V75.5583Z" fill="white"/>
    </g>
    <defs>
        <clipPath id="clip0_265_108">
            <rect width="95" height="85" fill="white"/>
        </clipPath>
    </defs>
</svg>