<svg width="68" height="114" viewBox="0 0 68 114" fill="none" xmlns="http://www.w3.org/2000/svg">
    <g clip-path="url(#clip0_265_68)">
        <path d="M41.79 0.11C44.71 1.2 46.15 3.36 45.77 6.4C45.35 9.82 46.46 11.87 49.52 13.83C56.63 18.4 60.13 25.66 62.46 33.54C62.84 34.83 63.1 36.16 63.44 37.46C63.91 39.29 63.93 41.24 66.02 42.38C67.3 43.08 67.46 44.73 67.52 46.19C67.76 52.15 67.45 55.4 59.07 55.28C41.77 55.05 24.47 55.21 7.18 55.21C1.64 55.21 0.0900027 53.62 0.0100027 48.15C-0.0299973 45.34 0.100003 42.73 2.96 41.15C3.65 40.77 3.54 39.84 3.69 39.13C5.45 30.76 8.21 22.87 14.47 16.66C16.25 14.89 18.21 13.33 20.43 12.15C21.45 11.6 21.92 10.97 21.81 9.77C21.69 8.5 21.76 7.2 21.79 5.92C21.89 2.45 23.25 0.82 26.7 0C28.1 0.02 29.5 0.03 30.91 0.05C33.16 0.04 35.42 0.02 37.67 0.01C39.05 0.04 40.42 0.08 41.8 0.11H41.79ZM33.63 40.7H54.72C60.16 40.7 60.21 40.69 58.77 35.49C56.73 28.11 53.48 21.47 47.02 16.86C44.37 14.97 41.59 13.76 38.19 13.96C34.69 14.17 31.16 14.04 27.65 13.99C26.25 13.97 24.99 14.29 23.77 14.92C21.1 16.29 18.7 18.01 16.64 20.2C11.94 25.19 9.64 31.34 8.13 37.85C7.47 40.68 7.52 40.69 10.52 40.69C18.23 40.69 25.93 40.69 33.64 40.69L33.63 40.7ZM33.55 51.13C42.47 51.13 51.38 51.13 60.3 51.13C62.3467 51.13 63.37 50.0767 63.37 47.97C63.37 47.83 63.37 47.7 63.37 47.56C63.37 44.71 63.37 44.7 60.45 44.7C42.89 44.7 25.32 44.7 7.76 44.7C3.58 44.7 4.09 44.47 4.07 48.42C4.06 51.09 4.09 51.12 6.81 51.12C15.73 51.12 24.64 51.12 33.56 51.12L33.55 51.13ZM33.7 10.1H37.95C42 10.1 41.97 10.1 41.75 6.03C41.68 4.68 41.14 4.11 39.76 4.13C36.46 4.18 33.16 4.1 29.85 4.15C26.01 4.21 25.75 3.12 25.73 8.36C25.73 9.86 26.31 10.17 27.63 10.12C29.65 10.03 31.67 10.1 33.69 10.1H33.7Z" fill="white"/>
        <path d="M24.02 71.0699C24.02 68.6999 24.02 66.3399 24.02 63.9699C24.02 62.4999 24.51 61.3699 26.16 61.3799C27.73 61.3799 28.23 62.5699 28.25 63.8699C28.31 68.6699 28.31 88.43 28.25 93.23C28.23 94.6 27.76 95.8299 26.05 95.8099C24.29 95.7899 24.04 94.5099 24.03 93.1399C24.01 90.7699 24.03 73.4399 24.03 71.0799L24.02 71.0699Z" fill="white"/>
        <path d="M58.77 70.6299C58.77 72.7899 58.77 102.71 58.77 104.86C58.77 106.3 58.27 107.52 56.71 107.6C55.06 107.68 54.56 106.35 54.54 104.98C54.48 100.53 54.48 68.3199 54.54 63.8699C54.56 62.5799 55.05 61.3899 56.61 61.3699C58.26 61.3599 58.77 62.4799 58.77 63.9399C58.77 66.1699 58.77 68.3899 58.77 70.6199V70.6299Z" fill="white"/>
        <path d="M8.92 87.7301C8.92 85.8401 8.92 83.9601 8.92 82.0701C8.92 80.7901 9.52 80.0401 10.85 79.9801C12.23 79.9301 12.88 80.8001 12.9 81.9801C12.98 85.8801 12.97 89.7901 12.91 93.7001C12.89 95.0201 12.1 95.8701 10.71 95.8001C9.38 95.7301 8.89 94.8401 8.9 93.5901C8.91 91.6401 8.9 89.6801 8.9 87.7301H8.92Z" fill="white"/>
        <path d="M43.42 69.21C43.42 71.03 43.42 72.85 43.42 74.67C43.42 76.01 42.78 77.01 41.47 77.04C40.02 77.08 39.38 76.02 39.38 74.6C39.38 71.03 39.38 67.45 39.38 63.88C39.38 62.56 39.73 61.39 41.35 61.37C43.07 61.34 43.45 62.49 43.42 63.95C43.39 65.7 43.42 67.46 43.42 69.21Z" fill="white"/>
        <path d="M8.92 67.2399C8.92 65.9599 8.91 64.6799 8.92 63.3999C8.93 62.2199 9.48 61.4499 10.7 61.3799C11.99 61.2999 12.84 62.0399 12.88 63.2699C12.98 66.0299 12.99 68.7999 12.88 71.5599C12.83 72.6499 12.02 73.4699 10.85 73.4099C9.62 73.3599 8.89 72.6299 8.91 71.2899C8.93 69.9399 8.91 68.5899 8.91 67.2499L8.92 67.2399Z" fill="white"/>
        <path d="M28.04 107.71C28.04 108.92 28.04 110.14 28.04 111.35C28.04 112.58 27.29 113.26 26.19 113.38C24.99 113.5 24.18 112.68 24.13 111.59C24.01 108.9 24.01 106.2 24.13 103.51C24.18 102.39 25.01 101.73 26.26 101.84C27.49 101.95 28.04 102.68 28.05 103.86C28.06 105.14 28.05 106.42 28.05 107.71H28.04Z" fill="white"/>
    </g>
    <defs>
        <clipPath id="clip0_265_68">
            <rect width="67.57" height="113.39" fill="white"/>
        </clipPath>
    </defs>
</svg>