<svg width="111" height="66" viewBox="0 0 111 66" fill="none" xmlns="http://www.w3.org/2000/svg">
    <g clip-path="url(#clip0_265_104)">
        <path d="M23.3046 46.0416C21.1922 52.2196 19.1703 58.1189 17.1484 64.0183C16.56 65.7436 16.2582 65.9621 14.4928 65.9621C10.4641 65.9621 6.4279 65.8642 2.40676 66.0073C0.43014 66.0751 -0.618524 64.7265 0.369785 62.7525C6.39772 50.7429 11.89 38.4847 16.5826 25.8874C19.374 18.4059 21.9919 10.8491 23.2216 2.92306C23.629 0.308676 24.2175 -0.248858 27.2277 0.293607C32.8558 1.31826 38.5366 2.12443 44.2175 2.83265C51.3922 3.72169 58.6046 3.85731 65.8321 3.56347C73.5349 3.24703 81.1245 2.19977 88.5783 0.180594C90.3663 -0.301598 91.1057 0.210731 91.3773 1.99635C93.965 18.8957 97.6994 35.4936 104.535 51.2477C106.225 55.1354 108.375 58.8272 110.336 62.6018C110.744 63.3854 111.287 64.1011 110.774 65.0354C110.268 65.9621 109.408 65.9772 108.495 65.9772C82.7616 65.9696 57.0354 65.9772 31.3016 65.9772C29.6117 65.9772 29.2646 65.721 28.7667 64.071C27.0466 58.3676 25.3416 52.6642 23.6215 46.9607C23.5536 46.7422 23.463 46.5388 23.2744 46.0566L23.3046 46.0416ZM106.028 62.4059C96.1 44.0525 91.3923 24.26 88.0577 4.00046C67.8238 8.91279 47.6804 7.78265 27.454 4.03813C27.4691 4.3847 27.454 4.65594 27.5068 4.91963C28.6007 10.6984 29.589 16.4998 30.8339 22.2409C32.8935 31.7566 35.3378 41.182 39.1704 50.1779C40.8754 54.1785 42.8143 58.0511 45.8094 61.2909C46.4733 62.0142 47.1523 62.4436 48.2613 62.4361C67.092 62.3909 85.9227 62.4059 104.753 62.4059H106.036H106.028Z" fill="white"/>
        <path d="M64.2175 21.6836C67.1673 21.6836 70.1172 21.6685 73.067 21.6836C76.0319 21.7062 77.737 23.3863 77.7973 26.3322C77.82 27.6055 77.8577 28.8863 77.7822 30.1521C77.737 30.8904 77.6615 31.7342 77.2768 32.3068C76.6808 33.1884 76.8543 33.874 77.2315 34.7178C78.1896 36.8575 79.1025 39.0199 79.9927 41.1822C80.6793 42.8548 79.9625 43.9397 78.167 43.9397C72.2673 43.9473 66.3676 43.9247 60.4604 43.9623C59.4193 43.9623 58.7478 43.6007 58.2424 42.6966C56.8919 40.263 55.5189 37.8445 54.093 35.4486C53.8138 34.974 53.3461 34.5521 52.8632 34.2658C51.3317 33.3616 50.4415 32.1185 50.434 30.3103C50.434 28.8336 50.4113 27.3644 50.434 25.8877C50.4792 23.6349 52.2522 21.7589 54.5155 21.7137C57.7444 21.6534 60.9734 21.6986 64.2024 21.6986C64.2024 21.6986 64.2024 21.6836 64.2024 21.676L64.2175 21.6836ZM57.8576 34.8534C58.8836 36.6616 59.8116 38.3644 60.8225 40.0144C60.9885 40.2856 61.5543 40.4137 61.9466 40.4212C64.0138 40.4589 66.0885 40.4363 68.1632 40.4363C70.6679 40.4363 73.1651 40.4363 75.8282 40.4363C75.1417 38.8014 74.4703 37.3247 73.912 35.8103C73.6177 35.0041 73.1726 34.7555 72.3277 34.763C67.9067 34.8007 63.4857 34.7781 59.0647 34.7856C58.7177 34.7856 58.3782 34.8233 57.8651 34.8534H57.8576Z" fill="white"/>
    </g>
    <defs>
        <clipPath id="clip0_265_104">
            <rect width="111" height="66" fill="white"/>
        </clipPath>
    </defs>
</svg>