<svg width="104" height="104" viewBox="0 0 104 104" fill="none" xmlns="http://www.w3.org/2000/svg">
    <g clip-path="url(#clip0_265_79)">
        <path d="M32.1363 16.381C31.971 16.326 31.916 16.2801 31.8517 16.2801C30.5299 16.2709 29.2081 16.2618 27.8955 16.2618C26.1147 16.2618 25.8853 16.5002 25.8761 18.3254C25.8761 19.8847 25.8944 21.4347 25.8761 22.9939C25.8577 24.2046 25.2978 24.8375 24.3156 24.8283C23.3518 24.8191 22.7827 24.1496 22.7827 22.9664C22.7735 21.2788 22.7827 19.582 22.7827 17.8944C22.7827 14.9502 24.5818 13.125 27.51 13.125C34.6146 13.1158 41.7285 13.1158 48.8332 13.125C51.6787 13.125 53.4411 14.886 53.4962 17.7293C53.5146 18.6648 53.4962 19.6095 53.4962 20.6826C54.001 20.6826 54.3958 20.6826 54.7905 20.6826C61.9319 20.6826 69.0732 20.6826 76.2146 20.6826C79.4274 20.6826 81.098 22.3519 81.1071 25.5529C81.1163 29.2767 81.1071 32.9913 81.1071 36.7151C81.1071 37.0728 81.1071 37.4213 81.1071 37.7698H86.5137C86.5137 37.3204 86.5137 36.9169 86.5137 36.5225C86.5137 25.5987 86.5137 14.6659 86.5045 3.74215C86.5045 2.55897 86.7615 1.55007 87.7161 0.770456C88.9921 -0.256795 94.3068 -0.247623 95.5827 0.797972C96.6108 1.63261 96.776 2.76076 96.7668 3.98979C96.7576 14.8126 96.7668 25.6446 96.7668 36.4674V37.834C98.0152 37.834 99.1259 37.8982 100.237 37.8157C102.045 37.6873 103.321 38.3568 104 40.0628V45.9512C103.201 47.6113 101.861 48.2441 100.053 48.1249C98.9882 48.0515 97.9234 48.1157 96.8219 48.1157V76.6219C97.9968 76.6219 99.1075 76.677 100.218 76.6128C102.017 76.4935 103.293 77.1723 104 78.8507V84.7391C103.229 86.4083 101.907 87.0687 100.09 86.9403C99.0249 86.8669 97.9509 86.9311 96.7668 86.9311C96.7668 87.4081 96.7668 87.7658 96.7668 88.1327C96.7668 92.0124 96.7026 95.8921 96.7943 99.7626C96.8402 101.716 96.2711 103.165 94.4537 104.018H88.7626C86.9634 103.138 86.4219 101.68 86.477 99.7168C86.5871 95.8279 86.5137 91.939 86.5137 88.0501C86.5137 87.6924 86.5137 87.3347 86.5137 86.922H85.146C78.4085 86.922 71.6801 86.922 64.9426 86.922C63.2445 86.922 62.4918 86.4267 62.5101 85.3261C62.5285 84.2346 63.2628 83.776 64.9885 83.776C71.7536 83.776 57.7829 83.776 70.4777 83.776C70.9458 83.776 71.5241 83.7026 71.8637 83.9319C72.341 84.253 72.9193 84.8308 72.9285 85.3077C72.9377 85.7938 72.3869 86.3808 71.9372 86.7477C71.6526 86.977 71.1019 86.9128 70.6612 86.9128C57.9022 86.9128 31.6222 86.9128 18.8632 86.9128H17.4863V88.1418C17.4863 91.994 17.4037 95.8554 17.523 99.7076C17.5781 101.67 17.0182 103.11 15.2374 104.009H9.54633C7.7105 103.156 7.15975 101.698 7.20564 99.7351C7.30661 95.8462 7.23318 91.9573 7.23318 88.0685C7.23318 87.7108 7.23318 87.3531 7.23318 86.922C5.79205 86.922 4.50697 86.9403 3.23106 86.922C1.23918 86.8945 0.0183517 85.6563 -6.62077e-06 83.6843C-6.62077e-06 82.4644 -6.62077e-06 81.2446 -6.62077e-06 80.0339C-6.62077e-06 77.7684 1.15657 76.6311 3.44218 76.6311C4.68137 76.6311 5.91138 76.6311 7.15057 76.6311V48.1249C5.76451 48.1249 4.44271 48.1524 3.13009 48.1249C1.17493 48.0699 -6.62077e-06 46.8408 -0.00918579 44.9056C-0.00918579 43.6215 -0.00918579 42.3374 -0.00918579 41.0534C-6.62077e-06 39.0447 1.19329 37.8799 3.22188 37.8707C4.52532 37.8707 5.82877 37.8707 7.21482 37.8707C7.21482 37.3296 7.21482 36.926 7.21482 36.5225C7.21482 25.8005 7.21482 15.0694 7.21482 4.34749C7.21482 3.90724 7.21482 3.46699 7.25154 3.02674C7.41676 1.3116 8.70185 0.128424 10.4275 0.110081C11.7126 0.0917368 12.9977 0.0917368 14.2828 0.110081C15.7056 0.128424 16.9356 1.00893 17.3119 2.35719C17.468 2.89833 17.4496 3.49451 17.4496 4.06316C17.4496 14.9227 17.4496 25.7822 17.4496 36.6417V37.8157H22.7276C22.7276 37.4305 22.7276 37.1003 22.7276 36.7701C22.7276 34.468 22.7276 32.1658 22.7276 29.8728C22.7276 28.6071 23.2875 27.9284 24.2881 27.9284C25.2886 27.9284 25.8118 28.5796 25.8302 29.882C25.8485 31.0285 25.8302 32.1842 25.8302 33.3306C25.8302 34.8073 25.8302 36.2932 25.8302 37.8157H50.3477C50.3477 37.403 50.3477 37.0361 50.3477 36.6692C50.3477 31.2578 50.3477 25.8464 50.3477 20.435C50.3477 19.4903 50.3477 18.5364 50.3477 17.5917C50.3477 16.8946 50.0173 16.3627 49.3013 16.3443C47.5848 16.2893 45.8683 16.326 44.0875 16.326M81.1071 76.5302H86.4494V48.1524H17.5597V76.5486H22.7368M14.347 100.909V3.16432H10.4092V100.9H14.347V100.909ZM93.5908 100.927V3.19183H89.6621V100.927H93.5908ZM86.477 40.9617H17.5506V44.8597H86.477V40.9617ZM59.7472 23.8469H53.5513V37.7698H77.9954C77.9954 33.4315 78.0229 29.1483 77.9495 24.865C77.9495 24.5073 77.307 23.8744 76.9398 23.8469C75.2325 23.7369 73.516 23.8011 71.6893 23.8011M7.16893 44.9147V40.9433H3.11173V44.9147H7.16893ZM96.8127 40.9158V44.8964H100.888V40.9158H96.8127Z" fill="white"/>
    </g>
    <defs>
        <clipPath id="clip0_265_79">
            <rect width="104" height="104" fill="white"/>
        </clipPath>
    </defs>
</svg>