<svg width="85" height="98" viewBox="0 0 85 98" fill="none" xmlns="http://www.w3.org/2000/svg">
    <g clip-path="url(#clip0_265_93)">
        <path d="M65.2362 0C65.6534 0.129641 66.0705 0.267925 66.4877 0.388923C71.1288 1.68533 74.2403 6.1882 73.8753 11.08C73.5363 15.7039 69.7991 19.6104 65.1406 20.3018C62.6462 20.6734 60.2127 20.1981 57.7965 19.7659C54.8763 19.2387 51.9995 18.4868 49.0879 17.8645C48.7664 17.7954 48.3492 17.925 48.045 18.0806C47.002 18.6337 45.9852 19.2214 44.977 19.8351C44.7336 19.982 44.4294 20.2931 44.4208 20.5351C44.3686 21.9958 44.3947 23.465 44.3947 24.9343C45.5593 25.2887 46.6978 25.5825 47.8016 25.9714C50.5046 26.9394 52.7817 28.5383 54.772 30.5953C55.0762 30.9151 55.6237 31.1571 56.0583 31.1657C59.1089 31.2176 62.1508 31.1916 65.2014 31.1916C65.4882 31.1916 65.7664 31.1657 66.0532 31.1484C66.9136 27.821 68.9386 25.6084 72.3108 24.9862C74.0491 24.6664 75.8916 24.8479 77.682 24.8133C78.1513 24.8047 78.6293 24.8133 79.1943 24.8133V18.8325H84.9652V67.7504H79.2377V61.7956C77.5429 61.7956 75.9785 61.7956 74.4141 61.7956C69.7382 61.7956 66.6963 59.2287 65.9141 54.5357C65.3926 54.5357 64.8538 54.5357 64.3149 54.5357C62.681 54.5357 61.0296 54.648 59.4131 54.5097C56.797 54.285 54.4069 54.5097 52.7209 56.8433C45.3507 62.6685 34.7561 61.9252 28.316 55.1234C27.8988 54.6826 27.499 54.5011 26.908 54.527C25.8216 54.5702 24.7265 54.5357 23.5097 54.5357V69.6777H0C0 69.2715 0 68.9258 0 68.5801C0 62.1672 0 55.7629 0 49.35C0.00869121 40.4912 5.79703 33.3523 14.5317 31.5201C15.7745 31.2608 17.0695 31.2176 18.3471 31.2003C21.1979 31.1571 24.0573 31.2003 26.908 31.1744C27.2556 31.1744 27.7076 31.0706 27.9248 30.8459C30.7495 27.7778 34.2173 25.8764 38.3021 25.0553C38.3543 25.0467 38.4064 24.9948 38.5455 24.917C38.5455 23.4737 38.5629 21.9785 38.5281 20.4833C38.5281 20.2759 38.3021 19.9993 38.1022 19.8783C37.0419 19.2387 35.9642 18.6165 34.8691 18.0374C34.591 17.8905 34.2086 17.7954 33.9131 17.8559C30.089 18.6165 26.2909 19.4548 22.4581 20.1635C19.1033 20.7858 15.8528 20.5006 13.0716 18.2621C9.73415 15.5742 8.37832 12.0653 9.36043 7.89946C10.3425 3.72502 13.115 1.15813 17.3563 0.181497C17.5389 0.146927 17.7127 0.0604992 17.8952 0C19.0511 0 20.2071 0 21.363 0C21.4499 0.0432137 21.5281 0.112356 21.615 0.129641C25.7694 0.959344 29.9151 1.7804 34.0695 2.60146C34.2694 2.63603 34.5562 2.64468 34.6779 2.53232C36.1554 1.20998 37.9632 0.544492 39.8318 0C40.9269 0 42.0133 0 43.1084 0C44.6815 0.717347 46.2894 1.3742 47.8103 2.19526C48.3492 2.48911 48.7316 2.67061 49.3574 2.51504C51.5736 1.95326 53.8073 1.42605 56.0583 0.959344C57.8834 0.579063 59.7347 0.311139 61.5859 0C62.8027 0 64.0281 0 65.2449 0H65.2362ZM17.6953 48.7969C18.182 48.7969 18.5296 48.7969 18.8773 48.7969C22.3103 48.7969 25.7434 48.8401 29.1677 48.771C30.2628 48.745 30.932 49.0475 31.6012 49.9637C33.8088 52.9886 36.842 54.6999 40.614 54.9246C45.2725 55.2098 48.9576 53.3603 51.6518 49.5834C52.1038 48.9525 52.5731 48.771 53.3119 48.7796C57.1881 48.8142 61.0731 48.7969 64.9494 48.7969H65.9402V36.9304C65.5404 36.9304 65.1927 36.9304 64.8451 36.9304C61.2209 36.9304 57.5966 36.8699 53.9811 36.965C52.7904 36.9909 52.0864 36.6452 51.3911 35.6772C49.0619 32.4535 45.8374 30.7249 41.8395 30.6212C37.3287 30.5089 33.8088 32.4362 31.2362 36.0834C30.8103 36.6884 30.3845 36.9563 29.6109 36.9477C25.7955 36.9045 21.9801 36.9131 18.1646 36.9477C17.2781 36.9477 16.3655 37.0341 15.4964 37.2243C9.73415 38.5034 5.88395 43.2396 5.82311 49.1685C5.77096 53.8529 5.81442 58.5373 5.82311 63.2303C5.82311 63.4463 5.87526 63.6538 5.90133 63.8785H17.704V48.7969H17.6953ZM79.1943 30.6039C77.456 30.6039 75.8221 30.6039 74.1881 30.6039C72.5455 30.6039 71.7807 31.3645 71.7807 33.0066C71.7807 35.7464 71.7807 38.4948 71.7807 41.2345C71.7807 45.383 71.7807 49.5229 71.7807 53.6714C71.7807 54.8382 72.3021 55.7975 73.2321 55.8494C75.1963 55.9704 77.1779 55.8839 79.1943 55.8839V30.5953V30.6039ZM51.6692 12.7048C54.6416 13.258 57.6401 13.8802 60.6559 14.3383C62.0291 14.5457 63.4979 14.684 64.8364 14.4334C67.0527 14.0185 68.4172 11.6504 68 9.48108C67.5307 7.06112 65.4795 5.50542 62.9765 5.79928C60.7863 6.04992 58.6048 6.37834 56.4407 6.76726C54.7894 7.06112 53.1728 7.5019 51.6605 7.84761V12.7135L51.6692 12.7048ZM31.3753 7.87353C27.3425 6.8364 23.2924 5.87706 19.1293 5.79063C16.6871 5.73878 14.7751 7.97725 14.8707 10.3194C14.9749 12.8431 17 14.7186 19.5552 14.6149C20.4852 14.5803 21.4151 14.5112 22.3277 14.3469C25.3436 13.8197 28.342 13.2407 31.3839 12.6789C31.3057 11.7368 31.2014 10.9849 31.2014 10.233C31.2014 9.47244 31.3144 8.72052 31.3839 7.87353H31.3753ZM41.4571 14.6322C43.908 14.6494 45.9504 12.653 45.9678 10.2244C45.9852 7.83896 43.9167 5.75606 41.5005 5.73878C39.0844 5.72149 37.0245 7.75254 37.0072 10.1811C36.9898 12.6184 38.9888 14.6149 41.4571 14.6322Z" fill="white"/>
        <path d="M11.5941 72.7632C15.34 76.7561 19.0251 80.6886 20.5982 85.9866C22.1539 91.25 18.9468 96.6258 13.7147 97.7666C8.28272 98.942 3.11145 95.4936 2.32055 90.0054C2.12065 88.6399 2.22495 87.1101 2.64213 85.7878C4.28477 80.5935 7.86554 76.687 11.5941 72.7632ZM11.4898 81.3713C10.4642 83.1258 9.48211 84.7161 8.5956 86.3582C8.27403 86.9546 8.07413 87.6719 8.0046 88.3547C7.85685 89.8585 8.51738 91.008 9.82976 91.7599C11.0987 92.4859 12.6718 92.3649 13.7843 91.4488C14.9402 90.5067 15.4617 89.2881 15.0706 87.8102C14.4535 85.4594 13.0368 83.5407 11.4724 81.38L11.4898 81.3713Z" fill="white"/>
    </g>
    <defs>
        <clipPath id="clip0_265_93">
            <rect width="85" height="98" fill="white"/>
        </clipPath>
    </defs>
</svg>