<svg width="76" height="92" viewBox="0 0 76 92" fill="none" xmlns="http://www.w3.org/2000/svg">
    <g clip-path="url(#clip0_265_76)">
        <path d="M23.111 91.2028C22.0398 90.7483 21.0805 90.1503 20.5049 89.0819C19.8494 87.8701 19.7454 86.6342 20.329 85.3586C21.1764 83.5168 22.0158 81.6751 22.8552 79.8333C23.031 79.4426 23.1829 79.028 23.3908 78.5178C23.007 78.4939 23.007 64.31 22.8472 60.9932C22.8472 60.9374 22.5834 59.885 22.3116 59.3747C21.3443 57.5648 20.337 55.7629 19.4097 53.9292C19.0979 53.3073 18.7142 53.1239 18.0347 53.1319C15.2288 53.1717 12.4149 52.9724 9.62491 53.1877C4.33281 53.5863 1.94257 48.3002 4.44472 44.4334C4.22089 44.3058 3.99705 44.1782 3.78121 44.0427C1.87062 42.8388 0.807405 41.1405 0.807405 38.8603C0.799411 29.6196 0.807405 20.3789 0.807405 11.1383C0.807405 6.21098 4.44473 1.90558 9.32113 0.956801C11.2717 0.574099 13.1263 0.98072 15.0049 1.34748C16.9955 1.73815 18.986 2.14477 20.9685 2.55937C23.3988 3.06964 25.0535 5.06288 25.0535 7.51855C25.0695 11.9914 25.0775 16.4642 25.0216 20.937C25.0216 21.3995 24.6618 22.0134 24.2701 22.2685C23.9663 22.4678 23.2629 22.3722 22.9271 22.141C22.6153 21.9257 22.4315 21.3596 22.4155 20.937C22.3515 19.5657 22.3915 18.1784 22.3915 16.7433H3.46145C3.46145 17.0383 3.46145 17.3492 3.46145 17.6522C3.46145 24.5408 3.49343 31.4215 3.43747 38.3101C3.42148 40.4469 4.7565 42.2408 7.3226 42.169C11.0958 42.0574 14.877 42.0654 18.6503 42.169C21.0405 42.2328 22.4395 40.5904 22.3915 38.3819C22.3196 35.089 22.3755 31.7882 22.3755 28.4954C22.3755 28.2881 22.3755 28.0808 22.3755 27.8735C22.3835 26.7414 22.8232 26.1673 23.6865 26.1593C24.5419 26.1514 25.0375 26.7653 25.0375 27.8496C25.0375 31.2062 25.0136 34.5628 25.0455 37.9115C25.0615 39.3386 24.9656 40.7259 24.1182 42.1371C24.5819 42.1371 24.9096 42.1371 25.2454 42.1371C40.1224 42.1371 54.9915 42.1371 69.8685 42.1371C72.6185 42.1371 74.7129 43.9151 75.1127 46.5462C75.5603 49.4802 74.0414 52.1432 71.4354 52.9006C70.7719 53.092 70.0364 53.1319 69.3409 53.1319C53.9682 53.1478 38.5876 53.1398 23.2149 53.1398H22.0238C22.8072 54.6069 23.4068 55.9862 24.2222 57.222C25.757 59.5182 26.2287 61.9739 26.1327 64.7166C25.9649 69.2452 26.1008 73.7818 26.0688 78.3105C26.0688 78.8526 25.9409 79.4187 25.725 79.913C24.8377 81.9621 23.8944 83.9792 22.9751 86.0203C22.2636 87.6069 22.8711 88.5478 24.6059 88.5478C37.5323 88.5478 50.4588 88.5478 63.3853 88.5478C64.0968 88.5478 64.7603 88.468 65.12 87.7505C65.4638 87.0568 65.208 86.4668 64.8082 85.8688C62.0982 81.8425 59.4122 77.8002 56.6942 73.734C54.264 74.2124 51.8498 74.6908 49.4276 75.1532C48.5003 75.3286 47.8847 74.9778 47.7009 74.2363C47.501 73.431 47.8847 72.7533 48.828 72.546C50.7226 72.1394 52.6332 71.7567 54.5518 71.4776C60.5154 70.6006 64.2566 67.1643 66.1433 61.5832C66.567 60.3394 66.8627 59.0478 67.2305 57.7801C67.4623 56.9828 68.1018 56.5523 68.8133 56.7038C69.5727 56.8632 70.0364 57.4452 69.8525 58.2744C68.8852 62.7552 67.4383 67.0367 63.777 70.1222C62.482 71.2145 60.9951 72.0756 59.5241 73.0802C59.652 73.2795 59.8359 73.5825 60.0278 73.8695C62.2821 77.2501 64.4165 80.7103 66.8308 83.9713C68.9732 86.8655 67.9659 90.0387 64.8962 91.2028H23.111ZM39.2751 50.429C43.6398 50.429 48.0126 50.429 52.3774 50.429C58.2211 50.429 64.0648 50.429 69.9085 50.429C71.0996 50.429 72.0349 49.7513 72.3307 48.7388C72.7304 47.3594 72.4027 45.8207 71.4354 45.3104C70.8438 44.9994 70.0924 44.8878 69.4129 44.8878C49.4596 44.8639 29.5143 44.8719 9.56096 44.8719C9.26517 44.8719 8.93741 44.8001 8.6816 44.9038C8.05806 45.1748 7.3226 45.3981 6.89092 45.8685C6.05953 46.7774 5.93163 47.9335 6.44325 49.0816C6.93089 50.1659 7.8742 50.437 8.99337 50.437C19.0899 50.4211 29.1785 50.429 39.2751 50.429ZM3.57337 13.9208H22.3915C22.3915 11.9754 22.3915 10.0938 22.3915 8.22017C22.3915 6.20301 21.728 5.41369 19.7455 5.03098C17.7309 4.64031 15.7084 4.25761 13.7019 3.81909C11.8233 3.4045 9.97665 3.26099 8.18597 4.13004C3.94909 6.19504 3.06174 9.59949 3.58136 13.9208H3.57337Z" fill="white" stroke="white" stroke-width="2" stroke-miterlimit="10"/>
        <path d="M13.3502 6.99224C13.9657 6.99224 14.5893 6.96035 15.2048 6.99224C16.0042 7.04008 16.5558 7.61413 16.5478 8.33967C16.5478 9.04129 16.0362 9.61535 15.2687 9.63927C13.9737 9.6871 12.6787 9.67116 11.3836 9.63927C10.5762 9.62332 10.1525 9.11305 10.0806 8.35562C10.0166 7.654 10.6242 7.03211 11.4076 6.98427C12.0551 6.94441 12.7026 6.98427 13.3502 6.98427V6.99224Z" fill="white" stroke="white" stroke-width="2" stroke-miterlimit="10"/>
    </g>
    <defs>
        <clipPath id="clip0_265_76">
            <rect width="76" height="92" fill="white"/>
        </clipPath>
    </defs>
</svg>