<svg width="93" height="76" viewBox="0 0 93 76" fill="none" xmlns="http://www.w3.org/2000/svg">
    <g clip-path="url(#clip0_265_99)">
        <path d="M0.853523 22.5907C4.82241 17.7777 9.3973 13.846 14.416 10.5412C21.6881 5.74516 29.4978 2.65228 37.8709 1.48292C56.4009 -1.11001 72.9422 4.17754 87.4009 17.5574C88.7495 18.8115 89.97 20.2435 91.3015 21.5231C92.4794 22.6416 92.2916 24.4973 91.5917 25.2684C90.6528 26.3107 89.3981 26.2429 88.2886 25.0142C82.587 18.7098 76.0661 13.8036 68.6404 10.4565C62.9303 7.88051 57.0154 6.33831 50.87 5.87226C36.3431 4.77917 23.1476 8.96514 11.386 18.6336C9.09003 20.5232 6.9989 22.7178 4.87362 24.8617C3.269 26.4801 2.07406 26.4039 0.853523 24.3956V22.5907Z" fill="white" stroke="white" stroke-width="2" stroke-miterlimit="10"/>
        <path d="M47.7888 16.2356C58.8846 16.4135 69.5537 21.252 78.473 30.9373C79.1473 31.6746 79.6423 32.4711 79.4119 33.5896C79.0107 35.4707 77.0903 36.0469 75.7503 34.7505C73.992 33.0473 72.2935 31.2593 70.4328 29.7256C64.6545 24.9889 58.1506 22.1841 51.0493 21.4045C38.5025 20.0318 27.5005 24.1161 18.1715 33.7421C17.9069 34.0133 17.6594 34.2929 17.3948 34.5725C16.3364 35.6911 15.022 35.7673 14.1514 34.759C13.2467 33.7167 13.3235 32.2931 14.3648 31.1238C16.9851 28.1749 19.8871 25.6413 23.0622 23.506C30.1806 18.7184 38.255 16.2186 47.7888 16.2441V16.2356Z" fill="white" stroke="white" stroke-miterlimit="10"/>
        <path d="M46.5427 75.5762C39.6206 75.6356 33.9873 69.3227 33.9447 61.4592C33.902 53.6126 39.4584 47.3082 46.4488 47.2743C53.4306 47.2404 59.0041 53.4685 59.0468 61.3575C59.0895 69.1871 53.516 75.5169 46.5427 75.5762ZM46.4659 69.1109C50.3238 69.1193 53.3453 65.7383 53.3453 61.4083C53.3453 57.1037 50.2896 53.6634 46.4744 53.6719C42.7189 53.6719 39.6633 57.1037 39.6462 61.3236C39.6291 65.6706 42.6335 69.0939 46.4573 69.1024L46.4659 69.1109Z" fill="white" stroke="white" stroke-miterlimit="10"/>
        <path d="M46.4659 31.7252C53.9171 31.793 60.3527 34.7249 65.7384 40.5293C66.4213 41.2665 66.8053 42.1223 66.4725 43.2239C66.1737 44.2153 65.5592 44.7661 64.6545 44.9017C63.7668 45.0373 63.1352 44.4865 62.5463 43.8425C60.1649 41.2496 57.4251 39.2582 54.2841 38.0974C45.5526 34.8943 37.6916 36.6823 30.7525 43.5035C30.5476 43.6984 30.3599 43.9187 30.1635 44.1136C29.0966 45.1644 27.859 45.1813 26.9884 44.1475C26.1178 43.1137 26.1861 41.6987 27.1933 40.5801C29.4551 38.0719 32.0242 36.0552 34.9091 34.5639C38.5708 32.6742 42.4116 31.6828 46.4573 31.7082L46.4659 31.7252Z" fill="white" stroke="white" stroke-width="0.75" stroke-miterlimit="10"/>
    </g>
    <defs>
        <clipPath id="clip0_265_99">
            <rect width="93" height="76" fill="white"/>
        </clipPath>
    </defs>
</svg>