<svg width="58" height="58" viewBox="0 0 58 58" fill="none" xmlns="http://www.w3.org/2000/svg">
    <path d="M28.73 -4.06586e-05C44.57 -3.92739e-05 57.46 12.89 57.46 28.73C57.46 44.57 44.57 57.46 28.7299 57.46C12.8899 57.46 -5.99083e-05 44.57 -5.85235e-05 28.73C-5.71387e-05 12.89 12.89 -4.20434e-05 28.73 -4.06586e-05ZM28.73 55.47C43.48 55.47 55.48 43.47 55.48 28.73C55.48 13.99 43.48 1.97996 28.73 1.97996C13.98 1.97996 1.98996 13.98 1.98996 28.73C1.98996 43.48 13.99 55.47 28.73 55.47Z" fill="black"/>
    <path d="M28.1699 45.0199L30.9199 45.0199L30.9199 11.0099L28.1699 11.0099L28.1699 45.0199Z" fill="black"/>
    <path d="M16.2999 31.7799L29.4899 42.7699L41.0199 31.84L42.9099 33.83L29.5999 46.4499L14.5399 33.8899L16.2999 31.7799Z" fill="black"/>
</svg>