<svg width="41" height="41" viewBox="0 0 41 41" fill="none" xmlns="http://www.w3.org/2000/svg">
    <g clip-path="url(#clip0_286_106)">
        <path d="M30.3678 0C30.9779 0.122766 31.5992 0.20833 32.1944 0.379457C36.7962 1.70756 39.7166 4.70602 40.6727 9.38971C41.5469 13.6753 40.2002 17.3397 36.986 20.3047C36.707 20.5614 36.5842 20.8069 36.5916 21.1864C36.614 22.5033 36.5916 23.824 36.6028 25.1409C36.6028 25.5427 36.4875 25.8589 36.1043 26.0114C35.7323 26.1565 35.4086 26.03 35.1296 25.751C34.2591 24.8731 33.37 24.0063 32.5069 23.1209C32.3172 22.9237 32.1423 22.8902 31.8819 22.9386C29.2889 23.4185 26.696 23.4594 24.1328 22.7898C21.7258 22.1611 19.7541 20.8144 18.2103 18.8761C16.1939 16.339 15.3123 13.4298 15.755 10.2193C16.3799 5.69558 18.8687 2.53344 23.0986 0.807277C23.9951 0.4427 24.9921 0.316215 25.9408 0.0818437C26.0301 0.0595227 26.1156 0.0297614 26.2049 0.00372017C27.5888 0.00372017 28.9764 0.00372017 30.3603 0.00372017L30.3678 0ZM34.9771 23.3143C34.9957 23.1804 35.0031 23.1543 35.0031 23.1283C35.0031 22.3285 35.044 21.5286 34.992 20.7325C34.951 20.1038 35.2003 19.7057 35.6653 19.3077C38.8051 16.5994 39.9621 13.1657 38.9688 9.1665C38.0276 5.37565 35.5053 2.97614 31.7331 1.92705C30.2376 1.51039 28.6974 1.58107 27.1684 1.61455C25.4795 1.65176 23.8835 2.06097 22.4029 2.89057C18.8278 4.89574 16.7296 8.96561 17.4067 13.1657C17.8196 15.7363 19.0473 17.8345 21.0711 19.4528C22.7861 20.8218 24.7466 21.5547 26.9489 21.603C28.623 21.6402 30.3045 21.7444 31.9414 21.2645C32.492 21.1008 32.9087 21.205 33.2993 21.6328C33.8164 22.1983 34.3744 22.7265 34.9696 23.3217L34.9771 23.3143Z" fill="#D5672E"/>
        <path d="M0 18.7794C0.264132 18.0651 0.42782 17.2876 0.807277 16.644C1.86009 14.8658 3.47836 13.9357 5.55421 13.9134C8.20298 13.8874 10.8555 13.906 13.5042 13.906C14.0994 13.906 14.4529 14.1999 14.4603 14.6872C14.4715 15.1932 14.1106 15.5019 13.4968 15.5019C10.915 15.5019 8.32946 15.487 5.74766 15.5094C4.08103 15.5242 2.77897 16.2385 2.04981 17.7601C1.78196 18.3144 1.62571 18.9803 1.61827 19.5978C1.58107 23.6342 1.59223 27.6669 1.60339 31.7033C1.61083 34.0284 3.37419 35.788 5.6993 35.8029C7.31013 35.8141 8.92097 35.8141 10.5318 35.7992C10.9671 35.7955 11.261 35.9331 11.5548 36.2754C12.1092 36.9189 12.7416 37.4956 13.4261 38.1838C13.4261 37.6741 13.4261 37.2575 13.4261 36.8445C13.4261 36.0782 13.6939 35.8066 14.4491 35.8066C17.1909 35.8066 19.9364 35.8178 22.6782 35.8029C24.3634 35.7917 25.6431 35.0626 26.4244 33.5448C26.7257 32.957 26.8522 32.3208 26.8522 31.6586C26.8522 29.9399 26.8522 28.2212 26.8522 26.5062C26.8522 26.3611 26.8522 26.2086 26.8857 26.0709C26.9861 25.6989 27.3619 25.4608 27.745 25.5055C28.1245 25.5501 28.437 25.8589 28.4407 26.2607C28.4481 28.2844 28.5263 30.3156 28.4184 32.332C28.2659 35.137 25.7733 37.3914 22.9572 37.4063C20.4795 37.4174 18.0019 37.4063 15.5243 37.4063C15.3792 37.4063 15.2304 37.4063 15.022 37.4063C15.022 37.8267 15.022 38.2322 15.022 38.6377C15.022 39.1287 15.0667 39.631 15.0034 40.1146C14.97 40.3675 14.7877 40.6503 14.5868 40.8177C14.3338 41.026 13.9916 40.9665 13.7386 40.747C13.4187 40.468 13.121 40.1629 12.8197 39.8616C12.072 39.1213 11.3391 38.3661 10.5802 37.6407C10.4462 37.5142 10.2193 37.4212 10.0333 37.4174C8.58243 37.3988 7.13157 37.41 5.67698 37.4063C2.81245 37.4026 0.561746 35.4978 0.0706832 32.6705C0.0632429 32.6221 0.0260412 32.5775 0 32.5329C0 27.9496 0 23.3701 0 18.7868L0 18.7794Z" fill="#D5672E"/>
        <path d="M13.5191 26.3722C10.7513 26.3722 7.97975 26.3722 5.21194 26.3722C4.82504 26.3722 4.49023 26.2383 4.39723 25.87C4.3377 25.6208 4.38606 25.2636 4.53487 25.0702C4.67624 24.8916 5.01477 24.7874 5.26775 24.7837C7.3994 24.7614 9.52734 24.7726 11.659 24.7726C15.0146 24.7726 18.3702 24.7726 21.7258 24.7726C21.8709 24.7726 22.0234 24.7651 22.1648 24.7949C22.5554 24.8767 22.8158 25.2599 22.7749 25.658C22.7339 26.0523 22.414 26.3574 21.9899 26.3648C21.1789 26.376 20.3642 26.3685 19.5532 26.3685C17.5443 26.3685 15.5317 26.3685 13.5228 26.3685L13.5191 26.3722Z" fill="#D5672E"/>
        <path d="M11.9938 29.2517C14.2445 29.2517 16.4915 29.2517 18.7422 29.2517C19.3969 29.2517 19.7913 29.7688 19.5792 30.3269C19.4453 30.6728 19.1775 30.844 18.8054 30.8477C18.3404 30.8477 17.8754 30.8477 17.4067 30.8477C13.4261 30.8477 9.44921 30.8477 5.46863 30.8477C5.3347 30.8477 5.20078 30.8551 5.07057 30.844C4.63903 30.8105 4.32282 30.4794 4.3191 30.0627C4.31166 29.6275 4.63531 29.2703 5.08917 29.2592C5.82204 29.2406 6.5512 29.2517 7.28407 29.2517C8.85398 29.2517 10.4239 29.2517 11.9938 29.2517Z" fill="#D5672E"/>
        <path d="M10.9075 21.8969C9.00277 21.8969 7.10176 21.8969 5.19704 21.8969C4.81014 21.8969 4.47904 21.7481 4.39348 21.3798C4.33768 21.1305 4.39348 20.7734 4.54601 20.5837C4.69109 20.4051 5.02963 20.3121 5.2826 20.3084C7.35845 20.2861 9.43431 20.2972 11.5139 20.2972C13.2438 20.2972 14.9736 20.2972 16.7072 20.2972C17.0941 20.2972 17.4252 20.446 17.5108 20.8143C17.5666 21.0636 17.5108 21.4207 17.3583 21.6104C17.2132 21.789 16.8747 21.882 16.6217 21.8857C14.717 21.9081 12.8159 21.8969 10.9112 21.8969H10.9075Z" fill="#D5672E"/>
        <path d="M22.7749 30.059C22.7712 30.5017 22.3955 30.8626 21.9491 30.8477C21.5212 30.8328 21.1753 30.4719 21.179 30.0441C21.1827 29.6014 21.5584 29.2406 22.0049 29.2554C22.4327 29.2703 22.7787 29.6312 22.7749 30.059Z" fill="#D5672E"/>
        <path d="M34.977 23.3143C34.3818 22.7153 33.8237 22.1908 33.3066 21.6253C32.916 21.1975 32.4956 21.097 31.9488 21.257C30.3119 21.7406 28.6304 21.6327 26.9563 21.5955C24.754 21.5472 22.7897 20.8143 21.0784 19.4453C19.0509 17.827 17.827 15.7288 17.4141 13.1582C16.737 8.95811 18.8352 4.88825 22.4103 2.88308C23.8909 2.05348 25.4868 1.64426 27.1758 1.60706C28.7048 1.57358 30.2449 1.50661 31.7404 1.91955C35.509 2.96864 38.0313 5.36815 38.9762 9.159C39.9695 13.1582 38.8125 16.5919 35.6727 19.3002C35.2114 19.6982 34.9621 20.0963 34.9993 20.725C35.0477 21.5211 35.0105 22.321 35.0105 23.1208C35.0105 23.1468 35.003 23.1729 34.9844 23.3068L34.977 23.3143ZM27.7152 13.1098C27.7152 13.4149 27.7078 13.7237 27.7152 14.0287C27.7301 14.5793 28.0538 14.9364 28.5188 14.9327C28.9764 14.9327 29.3112 14.5533 29.3223 14.0175C29.3298 13.5786 29.3447 13.1359 29.3186 12.7006C29.2963 12.3844 29.3967 12.243 29.7092 12.1389C31.3684 11.5697 32.291 9.66495 31.7442 7.99087C31.2271 6.4098 29.713 5.41651 28.1133 5.60996C26.4652 5.81085 25.219 7.17987 25.1223 8.89115C25.0999 9.32641 25.3715 9.68727 25.777 9.75795C26.2309 9.83607 26.5806 9.60914 26.6922 9.14784C26.7257 9.00648 26.7443 8.86139 26.7629 8.7163C26.8782 7.78998 27.8305 7.07571 28.7494 7.23568C29.7874 7.41424 30.4607 8.35545 30.2487 9.31153C30.0813 10.063 29.62 10.5057 28.8908 10.7215C28.0984 10.9558 27.7375 11.4506 27.7152 12.2728C27.7078 12.5518 27.7152 12.8308 27.7152 13.1135V13.1098ZM28.5262 18.08C28.954 18.0763 29.3149 17.7191 29.3261 17.2987C29.3335 16.8784 28.9317 16.4729 28.5113 16.4803C28.0761 16.4877 27.7189 16.8672 27.7301 17.3136C27.7413 17.7526 28.0872 18.0837 28.5299 18.08H28.5262Z" fill="white"/>
        <path d="M27.7153 13.1098C27.7153 12.8308 27.7078 12.5518 27.7153 12.2691C27.7376 11.4469 28.0984 10.9521 28.8908 10.7178C29.62 10.502 30.085 10.0593 30.2487 9.30783C30.4608 8.34803 29.7837 7.41054 28.7495 7.23198C27.8343 7.07201 26.8782 7.78628 26.7629 8.7126C26.7443 8.85769 26.7257 9.00278 26.6922 9.14414C26.5806 9.60172 26.2309 9.83237 25.7771 9.75425C25.3716 9.68357 25.0963 9.32271 25.1223 8.88745C25.2153 7.17617 26.4653 5.80715 28.1133 5.60626C29.713 5.41281 31.2234 6.4061 31.7442 7.98717C32.2911 9.65753 31.3685 11.5623 29.7093 12.1352C29.3968 12.243 29.2963 12.3807 29.3187 12.6969C29.3484 13.1359 29.3335 13.5749 29.3224 14.0138C29.3112 14.5533 28.9764 14.9253 28.5188 14.929C28.0575 14.929 27.7339 14.5719 27.7153 14.025C27.7078 13.72 27.7153 13.4112 27.7153 13.1061V13.1098Z" fill="#D5672E"/>
        <path d="M28.5263 18.08C28.0836 18.0837 27.7376 17.7526 27.7265 17.3136C27.7153 16.8672 28.0724 16.484 28.5077 16.4803C28.9281 16.4729 29.3298 16.8784 29.3224 17.2988C29.315 17.7191 28.9504 18.0763 28.5226 18.08H28.5263Z" fill="#D5672E"/>
    </g>
    <defs>
        <clipPath id="clip0_286_106">
            <rect width="41" height="41" fill="white"/>
        </clipPath>
    </defs>
</svg>