<svg width="38" height="26" viewBox="0 0 38 26" fill="none" xmlns="http://www.w3.org/2000/svg">
    <g clip-path="url(#clip0_286_126)">
        <path d="M2.50712e-06 15.168C0.224191 14.9863 0.42347 14.7683 0.672569 14.635C2.42041 13.6944 4.18486 12.7739 5.93685 11.8372C6.05725 11.7726 6.20671 11.6354 6.21501 11.5183C6.32711 10.3232 7.01628 9.60057 8.15798 9.19685C7.96701 7.70709 8.60221 6.68567 10.0677 6.14467C9.87676 4.64281 10.5286 3.63349 11.9235 3.11672C11.9692 2.65647 11.9484 2.18815 12.0771 1.76827C12.5338 0.266411 14.3398 -0.444148 15.7638 0.294672C16.1997 0.520759 16.6107 0.791256 17.0467 1.01734C17.9102 1.46952 18.4375 2.14778 18.5745 3.12883C19.5044 2.64436 20.4178 2.16796 21.327 1.69157C21.8044 1.44126 22.286 1.19498 22.7635 0.944672C24.6691 -0.0404212 26.6453 1.0456 26.7698 3.13691C26.7698 3.18132 26.7864 3.22977 26.7906 3.27014C28.9577 3.56082 29.6386 5.36952 29.0781 6.77449C29.7382 7.05306 30.2489 7.50523 30.5312 8.16734C30.8052 8.82138 30.7844 9.47945 30.4897 10.1698C31.1373 10.4645 31.5982 10.9369 31.8971 11.5748C31.9428 11.6677 32.0839 11.7242 32.1877 11.7847C33.9314 12.786 35.6751 13.7872 37.4188 14.7885C38.0623 15.1599 38.1495 15.499 37.7634 16.1167C37.2195 16.9888 36.6715 17.8608 36.1235 18.7329C35.7996 19.2456 35.3762 19.399 34.9651 19.1527C34.5749 18.9186 34.5251 18.4745 34.8323 17.9819C35.2848 17.2552 35.7415 16.5285 36.2065 15.7897C35.3346 15.2931 34.496 14.8127 33.62 14.3161C31.8639 17.1099 30.116 19.8916 28.3516 22.6934C29.2276 23.2021 30.0704 23.6906 30.9298 24.1872C31.0543 23.9975 31.1498 23.8319 31.266 23.6785C31.5068 23.3596 31.9594 23.2708 32.2873 23.4726C32.607 23.6704 32.7316 24.0782 32.5406 24.4214C32.3164 24.8211 32.0715 25.2127 31.8099 25.5922C31.5816 25.9232 31.1789 26.0242 30.8301 25.8263C29.5182 25.0795 28.2146 24.3245 26.9193 23.5534C26.5373 23.3273 26.4667 22.9316 26.6909 22.5441C26.9317 22.1363 27.1891 21.7447 27.4548 21.3167C26.886 20.9857 26.3297 20.6546 25.7651 20.3397C25.6862 20.2953 25.5492 20.3074 25.462 20.3437C23.5481 21.1027 21.6259 21.1431 19.6788 20.4689C19.5501 20.4245 19.3591 20.4487 19.2304 20.5052C16.9553 21.5186 14.6678 21.6236 12.3553 20.6142C12.264 20.5739 12.1228 20.5537 12.0439 20.594C11.4668 20.8888 10.9022 21.2037 10.3127 21.5186C10.5493 21.9304 10.7735 22.3139 10.9853 22.7015C11.2593 23.194 11.1472 23.5736 10.6407 23.8481C9.41178 24.5142 8.17874 25.1723 6.9457 25.8304C6.37693 26.1332 6.01574 26.0322 5.69191 25.4751C3.84027 22.2736 1.98864 19.072 0.132855 15.8745C0.0913387 15.8059 0.0373673 15.7413 -0.00830078 15.6767C-0.00830078 15.5071 -0.00830078 15.3416 -0.00830078 15.172L2.50712e-06 15.168ZM17.2418 5.50678C17.7317 6.26983 17.8645 7.03691 17.5532 7.8484C17.2418 8.65585 16.6107 9.14032 15.8012 9.41082C15.9963 10.3192 15.8053 11.1024 15.1826 11.7524C14.5598 12.4024 13.7586 12.6164 12.8659 12.5559C12.8327 12.7052 12.7995 12.8344 12.7705 12.9596C12.4176 14.4937 10.7486 15.386 9.27478 14.7642C8.53578 14.4493 7.86322 13.981 7.16989 13.5692C6.97892 13.4521 6.82115 13.1776 6.64263 13.1695C6.4309 13.1614 6.20671 13.3633 5.99083 13.4763C5.9161 13.5167 5.84552 13.5611 5.74588 13.6217C7.02874 15.8341 8.29914 18.0344 9.582 20.2509C10.3044 19.8633 10.9853 19.508 11.662 19.1326C11.9941 18.9468 12.3096 18.9226 12.6376 19.1164C12.7539 19.185 12.8784 19.2375 13.003 19.2941C14.9916 20.1822 16.9346 20.0208 18.8443 19.0599C21.0032 17.9739 23.1579 16.8757 25.3126 15.7857C26.8445 15.0105 28.3765 14.2354 29.9084 13.4521C30.3859 13.2099 30.6225 12.786 30.5478 12.3419C30.4274 11.6031 29.622 11.2316 28.8871 11.5909C27.5752 12.2329 26.2716 12.8909 24.9638 13.5369C24.4573 13.7872 24.0256 13.6984 23.8055 13.3068C23.5813 12.9071 23.764 12.4993 24.2871 12.2329C24.7355 12.0068 25.188 11.7847 25.6364 11.5586C26.6328 11.058 27.6333 10.5655 28.6297 10.0568C29.1155 9.80647 29.3148 9.33815 29.1819 8.8456C29.0532 8.37728 28.6339 8.07449 28.0942 8.10275C27.87 8.11486 27.6333 8.1956 27.4341 8.29653C25.9976 9.04343 24.5736 9.81051 23.1371 10.5614C22.7012 10.7916 22.2653 10.6664 22.0577 10.2869C21.8584 9.91952 21.9954 9.51983 22.4189 9.28567C22.8382 9.05554 23.2617 8.83753 23.6851 8.61144C24.8434 7.99778 26.0059 7.38815 27.1601 6.76237C27.6458 6.49995 27.8451 6.06796 27.7537 5.58349C27.6832 5.19995 27.3386 4.84063 26.8861 4.80834C26.5996 4.78815 26.2633 4.85275 26.0101 4.98194C24.503 5.75306 23.0167 6.55647 21.518 7.35181C21.41 7.40834 21.3021 7.4689 21.1858 7.51331C20.9077 7.62231 20.6503 7.56983 20.4261 7.38411C20.1936 7.19436 20.094 6.92386 20.2019 6.67355C20.2932 6.46362 20.4884 6.24964 20.6959 6.1366C21.9747 5.43411 23.27 4.75989 24.5528 4.06952C24.7397 3.96859 24.9306 3.82728 25.0552 3.66175C25.3416 3.29032 25.3001 2.76548 25.0012 2.42635C24.6566 2.0307 24.0961 1.92169 23.5855 2.18411C22.5061 2.73722 21.4349 3.30647 20.3597 3.87169C19.3301 4.41268 18.3005 4.95368 17.2376 5.51486L17.2418 5.50678ZM1.77275 15.709C3.43341 18.5754 5.08161 21.4217 6.73397 24.2801C7.63903 23.7956 8.49842 23.3313 9.37026 22.863C7.70961 20.0006 6.06971 17.1745 4.4132 14.3161C3.5206 14.7844 2.65705 15.2406 1.77275 15.7049V15.709ZM21.4266 19.395C22.7801 19.6009 23.9799 19.4192 25.1133 18.8742C25.5534 18.6602 25.9146 18.6804 26.3214 18.9347C26.9483 19.3304 27.596 19.6857 28.2519 20.0652C29.622 17.881 30.9671 15.7332 32.333 13.5571C32.1794 13.4723 32.0632 13.4077 31.9095 13.3229C31.5982 14.1586 30.9505 14.5866 30.2157 14.9459C29.1445 15.4667 28.0942 16.0158 27.0314 16.5527C25.1963 17.4813 23.3613 18.4139 21.4308 19.395H21.4266ZM9.64012 8.57107C9.61106 8.59126 9.57785 8.6074 9.54879 8.62759C9.719 8.89001 9.82695 9.24126 10.0677 9.39467C10.9645 9.96796 11.8903 10.4928 12.8286 10.9934C13.3268 11.2599 13.9703 11.0217 14.2401 10.5574C14.4975 10.1173 14.373 9.48753 13.9205 9.21299C13.032 8.67604 12.1353 8.14716 11.2136 7.66268C10.5037 7.29126 9.64427 7.81206 9.64012 8.56703V8.57107ZM16.1997 6.97231C16.2288 6.95213 16.262 6.93194 16.2911 6.91579C16.1167 6.6574 16.0046 6.3102 15.7596 6.15275C14.9044 5.60368 14.016 5.10709 13.1192 4.62666C12.6168 4.35616 11.9775 4.56206 11.691 5.02231C11.417 5.46237 11.5167 6.09219 11.9733 6.37076C12.8493 6.90772 13.7336 7.4366 14.6512 7.90492C15.3735 8.27231 16.208 7.73939 16.1956 6.97635L16.1997 6.97231ZM15.7596 4.34809C16.453 4.34809 16.8557 4.07759 17.0093 3.62945C17.1504 3.21765 17.0093 2.73318 16.6107 2.48691C16.0959 2.15989 15.5645 1.85306 15.0165 1.57449C14.564 1.34436 14.0243 1.47759 13.7046 1.83287C13.414 2.15585 13.3143 2.66051 13.6008 2.99964C14.1986 3.71424 15.0705 4.03318 15.7555 4.34809H15.7596ZM9.01737 10.6139C8.3282 10.6059 7.92964 10.8723 7.77188 11.3326C7.63072 11.7444 7.77188 12.2288 8.16629 12.4751C8.68109 12.8021 9.21665 13.109 9.76052 13.3875C10.2172 13.6217 10.7362 13.4925 11.0724 13.1251C11.3755 12.7941 11.4668 12.2692 11.1596 11.9301C10.5493 11.2478 9.70655 10.9086 9.01737 10.618V10.6139Z" fill="#D5672E"/>
        <path d="M34.3673 21.3086C34.3673 21.7326 34.0559 22.0313 33.6242 22.0273C33.2007 22.0273 32.8727 21.7003 32.881 21.2965C32.8893 20.917 33.2256 20.59 33.6159 20.5819C34.0352 20.5739 34.3632 20.8928 34.3673 21.3046V21.3086Z" fill="#D5672E"/>
    </g>
    <defs>
        <clipPath id="clip0_286_126">
            <rect width="38" height="26" fill="white"/>
        </clipPath>
    </defs>
</svg>