<svg width="98" height="98" viewBox="0 0 97 97" fill="none" xmlns="http://www.w3.org/2000/svg">
    <path d="M69.1359 76.2515C53.8906 87.4113 32.4027 84.0304 21.2423 68.7158C10.0819 53.4012 13.406 31.8572 28.6513 20.6974C43.8966 9.53751 65.3847 12.9184 76.545 28.233C87.7054 43.5476 84.3813 65.0916 69.1359 76.2515ZM30.0534 22.6214C15.8572 33.0133 12.7626 53.0697 23.155 67.3305C33.5474 81.5912 53.5447 84.7291 67.7409 74.3371C81.9371 63.9452 85.0221 43.8958 74.6368 29.6448C64.2514 15.3937 44.24 12.2365 30.0534 22.6214Z" fill="#91BBD7"/>
    <path d="M59.9888 66.5102C54.1288 70.802 50.2534 71.1932 47.7727 70.3999C45.2278 69.5793 43.5998 67.242 43.313 64.0112C43.2096 62.856 43.2865 61.5835 43.5306 60.2775C39.6271 59.7995 36.4012 57.8612 34.4668 54.799C33.0311 52.5432 32.6667 50.0367 33.4255 47.553C33.5148 47.2502 33.6305 46.943 33.7532 46.6455C33.0479 46.1833 32.4509 45.6268 31.9913 44.9549C30.1334 42.2816 29.9188 37.3666 39.5017 29.1913L41.4214 31.4634C35.4543 36.5604 32.8367 40.9691 34.4224 43.2485C34.6337 43.5387 34.9072 43.813 35.2288 44.0521C37.5529 40.8816 41.369 38.2202 44.8064 36.7408C46.8367 35.8618 49.3966 37.0274 50.3888 39.2817C51.6643 42.1887 50.5874 44.9648 47.5408 46.677C44.5039 48.3822 40.0001 48.8629 36.4605 47.8513C36.3796 48.0441 36.3153 48.2395 36.2606 48.4278C35.7475 50.0939 35.9845 51.6556 36.9684 53.1893C38.4227 55.4908 40.8862 56.9494 43.8943 57.312C44.0442 57.3356 44.2039 57.3522 44.3564 57.3591C45.8011 53.5276 48.679 49.6994 52.9916 47.416C54.8611 46.4175 57.1363 47.05 58.5141 48.9626C59.9437 50.9262 59.8247 53.3566 58.2495 54.8811C54.9278 58.0999 50.7125 60.0304 46.5422 60.341C46.2635 61.5388 46.1688 62.7056 46.264 63.7482C46.3648 64.9202 46.8181 66.9612 48.6714 67.5615C50.2396 68.074 56.4215 68.5 70.0751 52.5825L72.335 54.5313C67.4751 60.1967 63.3951 64.0154 59.9888 66.5102ZM47.6592 57.1944C50.7015 56.6719 53.7249 55.1101 56.1925 52.7244C56.8342 52.1061 56.4421 51.1623 56.1111 50.7077C55.9702 50.5142 55.2415 49.5945 54.3847 50.0589C51.2888 51.7034 49.0132 54.3934 47.6567 57.2111L47.6592 57.1944ZM38.1304 45.1601C40.6768 45.6384 43.8933 45.3145 46.1092 44.0623C48.6421 42.6373 47.964 41.0576 47.6966 40.4674C47.3435 39.6582 46.4822 39.2656 46.0077 39.4649C43.2821 40.6454 40.1552 42.7131 38.14 45.153L38.1304 45.1601Z" fill="#91BBD7"/>
</svg>