<svg width="98" height="98" fill="none" xmlns="http://www.w3.org/2000/svg">
    <path d="M34.2463 69.0094C15.365 69.0094 0 53.5674 0 34.5913C0 15.6152 15.365 0.173096 34.2463 0.173096C53.1276 0.173096 68.4924 15.6152 68.4924 34.5913C68.4924 53.5674 53.1276 69.0094 34.2463 69.0094ZM34.2463 2.55709C16.6642 2.55709 2.37207 16.9329 2.37207 34.5913C2.37207 52.2496 16.6762 66.6374 34.2463 66.6374C51.8164 66.6374 66.1204 52.2616 66.1204 34.5913C66.1204 16.921 51.8164 2.55709 34.2463 2.55709Z" fill="#FCC438"/>
    <path d="M35.5813 57.9637L32.3153 57.9038C31.5881 46.0916 22.4216 36.7953 10.9784 35.9806L11.0141 32.6981H11.3718C22.9938 32.1591 32.2079 22.9585 32.792 11.2901L36.0581 11.2422C36.964 22.4194 45.6418 31.608 56.7036 33.0935L57.5141 33.2013L57.4307 36.4718C45.9517 37.4302 36.7733 46.463 35.5813 57.9757V57.9637ZM19.0483 34.4951C26.0692 37.3104 31.6 43.0967 34.127 50.2726C36.9998 43.0727 42.8168 37.3943 50.088 34.7347C42.9717 31.9434 37.2978 26.2051 34.5443 19.077C31.9338 26.2769 26.248 31.9434 19.0483 34.4951Z" fill="#FCC438"/>
</svg>