<svg width="98" height="98" fill="none" xmlns="http://www.w3.org/2000/svg">
  <path d="M25.007 73.8532C11.6023 60.5559 11.5693 38.772 24.9333 25.3C38.2974 11.8281 60.0808 11.6859 73.4855 24.9832C86.8902 38.2805 86.9232 60.0643 73.5591 73.5363C60.195 87.0083 38.4116 87.1505 25.007 73.8532ZM71.8066 26.6757C59.3243 14.2934 39.0449 14.4258 26.6005 26.9707C14.156 39.5156 14.1952 59.7869 26.6775 72.1692C39.1597 84.5515 59.4306 84.4107 71.8666 71.8743C84.3027 59.3378 84.2804 39.0496 71.8066 26.6757Z" fill="#94C77E"/>
  <path d="M27.2191 50.3985C25.5774 48.7699 25.2793 47.293 25.4382 46.185C25.6974 44.3835 27.3584 41.9813 33.8461 40.8405C38.4078 40.0333 44.2974 40.054 50.4247 40.8844C62.2485 42.4888 73.8148 47.0439 73.0205 52.6514C72.2347 58.2505 59.8408 59.5566 48.0171 57.9522C41.8897 57.1218 36.2175 55.5618 32.0403 53.578C29.7741 52.4943 28.2346 51.4227 27.2107 50.407L27.2191 50.3985ZM69.3668 50.4107C66.9381 48.0014 60.0468 44.9452 50.0486 43.5824C44.1916 42.7841 38.5979 42.7699 34.3065 43.5246C29.9645 44.2965 28.2681 45.6342 28.1342 46.5477C28.0004 47.4612 29.2706 49.2105 33.2364 51.1028C37.16 52.97 42.5447 54.4474 48.4101 55.2372C61.2819 56.9868 69.9901 54.6569 70.3245 52.2719C70.3997 51.739 70.0692 51.0905 69.3668 50.3938L69.3668 50.4107Z" fill="#94C77E"/>
</svg>