<svg width="245" height="64" viewBox="0 0 245 64" fill="none" xmlns="http://www.w3.org/2000/svg">
    <g clip-path="url(#clip0_17_136)">
        <path d="M0.0324516 19.3177C2.57792 19.3455 4.80346 19.4382 6.70445 19.5911C8.05832 19.5911 9.04127 19.5679 9.66257 19.5216C10.0984 19.4984 10.372 19.4891 10.4879 19.4891L14.3408 19.5216C14.8694 19.6142 15.2913 19.6698 15.6113 19.693C15.7504 19.7393 15.8755 19.8645 15.9915 20.073C15.9915 20.3047 15.9219 20.541 15.7828 20.7958C15.3933 20.907 14.99 20.9765 14.5773 20.9997C12.8572 21.1804 11.4152 21.4399 10.2421 21.7782C10.0799 21.8894 10.001 22.0052 10.001 22.1164C10.001 22.3435 10.117 22.6956 10.3441 23.1682C10.3905 23.2841 10.4925 23.5575 10.6548 23.993L14.0997 32.2502C15.6391 36.0359 17.0625 39.2239 18.3746 41.8187C19.2649 40.1228 20.0902 38.3666 20.8459 36.5549C21.6017 34.7431 22.7098 31.8841 24.175 27.9872C24.5876 26.8844 24.9771 25.5268 25.3434 23.905C25.4129 23.5853 25.4454 23.3119 25.4454 23.0848C25.4454 22.8115 25.2924 22.5103 24.9817 22.1766C24.6711 21.8477 24.1518 21.5789 23.4146 21.3704C23.2569 21.3472 22.2137 21.1758 20.2849 20.8561C20.1226 20.7634 19.9743 20.6383 19.8398 20.4761V20.2027C19.8398 20.0869 19.8491 19.9386 19.8723 19.7579C20.424 19.6884 20.8227 19.6559 21.0731 19.6559L25.1301 19.6884C25.4037 19.6884 26.0574 19.6559 27.0914 19.5864C30.7403 19.5864 32.9288 19.6189 33.6614 19.6884C33.8005 19.7347 33.9256 19.8737 34.0416 20.1008C34.0416 20.3047 33.972 20.5363 33.8329 20.7866L32.7665 21.0599C32.4929 21.0831 32.275 21.1063 32.1128 21.1294C30.1422 21.3148 28.9274 21.5835 28.4684 21.9496C28.1253 22.1998 27.5828 23.3721 26.8503 25.4712C26.5072 26.5045 26.0018 27.8112 25.3388 29.3959L23.5537 33.733C23.3033 34.3539 23.0251 35.0304 22.7284 35.7625L17.4102 48.0834H16.3531C16.1445 47.532 15.8941 46.9574 15.5974 46.3643L12.987 40.8225L6.83427 26.4025C5.59631 23.6038 4.84983 22.0886 4.59945 21.8616C4.34908 21.6345 2.87929 21.1526 0.199367 20.4159C0.0602709 20.0498 -0.00927734 19.7857 -0.00927734 19.6235L0.0231785 19.313L0.0324516 19.3177Z" fill="black"/>
        <path d="M58.0357 40.7252L58.7404 41.1839C58.9259 41.3275 59.0372 41.499 59.0789 41.7029L59.1114 41.8558C58.6199 43.6722 57.9801 44.9186 57.1826 45.6044C56.3851 46.2902 55.3975 46.6284 54.2152 46.6284C53.0329 46.6284 51.9757 46.2994 51.1087 45.6322C50.2417 44.9696 49.4488 43.8019 48.7348 42.1292C47.8585 43.6814 46.6205 44.8491 45.0302 45.6322C43.4398 46.4153 41.4878 46.8091 39.1835 46.8091C37.0599 46.8091 35.4974 46.3643 34.5006 45.4793C33.4991 44.5943 32.9983 43.4266 32.9983 41.9762C32.9983 41.3044 33.1467 40.6186 33.4434 39.9282C33.7402 39.2331 34.2177 38.5473 34.8808 37.8616C35.5438 37.1804 36.6102 36.4298 38.08 35.6142C38.3025 35.4938 39.0768 35.1462 40.4075 34.5763L48.03 31.5181C48.0903 30.7443 48.1227 29.9565 48.1227 29.1642C48.1227 26.4118 47.7889 24.5352 47.112 23.5343C46.704 22.9227 45.9899 22.6168 44.9699 22.6168C43.9498 22.6168 43.0086 22.8115 42.1555 23.1961C41.2977 23.5853 40.6764 24.0857 40.287 24.6974C39.9995 25.1468 39.7584 25.9948 39.5544 27.2366C39.4107 28.1355 39.2808 28.6545 39.1557 28.7981C38.8496 29.1874 38.2933 29.5395 37.4865 29.8546C36.6797 30.1697 36.1326 30.4014 35.8498 30.545C34.7463 31.0733 33.87 31.342 33.2162 31.342C32.9288 31.0964 32.785 30.7489 32.785 30.3041C32.785 29.141 33.0308 28.1402 33.5176 27.3061C34.2548 26.1245 35.3583 24.9754 36.842 23.8633C38.3211 22.7512 39.7028 21.9728 40.9917 21.5233C42.749 20.9534 44.8911 20.6661 47.4226 20.6661C49.0547 20.6661 50.4596 20.9673 51.6326 21.5696C52.8057 22.172 53.6217 23.0663 54.0807 24.2479C54.5397 25.4295 54.7716 27.561 54.7716 30.6423L54.7113 35.6884L54.7716 39.3907V40.3406C54.7716 41.1978 54.8875 41.7816 55.1193 42.1014C55.3511 42.4164 55.6432 42.574 56.0049 42.574C56.2274 42.574 56.4175 42.5138 56.5798 42.3886L57.4979 40.9522L58.0496 40.7391L58.0357 40.7252ZM47.9929 33.6264C46.8292 34.0156 45.517 34.6643 44.0611 35.5679C42.6006 36.4761 41.5852 37.3889 41.0149 38.3064C40.6069 38.9783 40.4029 39.8077 40.4029 40.7854C40.4029 41.6612 40.6672 42.3886 41.2004 42.9586C41.7289 43.5285 42.341 43.8158 43.0364 43.8158C44.177 43.8158 45.1461 43.4914 45.9436 42.8381C47.0239 41.9623 47.6591 41.2627 47.8399 40.7437C48.0207 40.2247 48.1135 38.7512 48.1135 36.3232C48.1135 35.4243 48.0717 34.53 47.9929 33.631V33.6264Z" fill="black"/>
        <path d="M65.5979 48.329C63.8546 46.9065 62.7326 45.8871 62.2272 45.2708C62.0417 45.0437 61.949 44.7889 61.949 44.5155C61.949 44.1726 62.0695 43.8622 62.3106 43.5888C62.5517 43.3154 63.1359 42.9818 64.0632 42.5925C64.9906 42.2033 66.5113 41.3229 68.621 39.9467C68.3706 39.627 67.8189 39.02 66.9704 38.1257L65.8715 36.9256C65.598 36.4205 65.3429 35.7486 65.1157 34.9007C64.8886 34.0527 64.7726 33.2094 64.7726 32.3614C64.7726 30.9899 64.9906 29.6647 65.4264 28.3811C66.0431 26.4813 66.8081 24.8735 67.7122 23.5575C68.6163 22.2415 69.539 21.2175 70.4802 20.4854C71.1247 19.9803 71.9037 19.5679 72.8171 19.2482C74.2405 18.7431 75.4413 18.4929 76.4289 18.4929C77.5973 18.4929 78.7658 18.7802 79.9388 19.3501C80.6946 19.7162 81.5662 19.9016 82.5538 19.9016C82.9433 19.9016 83.4069 19.8691 83.9448 19.7996C84.4826 19.7301 84.8582 19.6977 85.0622 19.6977C85.2477 19.6977 85.5212 19.7208 85.8875 19.7672C85.9571 20.453 85.9895 20.9488 85.9895 21.2453C85.9895 21.477 85.906 21.7133 85.7484 21.9682C85.3821 22.0145 85.1178 22.0377 84.9555 22.0377C84.427 22.0377 83.6249 21.8894 82.5492 21.5928C82.1133 21.477 81.7239 21.3751 81.3808 21.2824C82.0253 22.6771 82.3452 24.2201 82.3452 25.916C82.3452 29.2337 81.2046 32.3568 78.9234 35.2806C76.6422 38.2091 73.9994 39.9838 70.9949 40.6001C69.3675 40.9198 68.0924 41.448 67.179 42.1801C66.8127 42.4535 66.6273 42.8242 66.6273 43.2783C66.6273 44.0336 67.2254 44.8816 68.417 45.8222C69.8868 46.5543 71.236 47.2077 72.474 47.7776C75.9838 49.0148 78.6313 50.4002 80.421 51.934C81.7934 53.1017 82.4843 54.6864 82.4843 56.6788C82.4843 57.7353 82.2061 58.6898 81.659 59.5517C81.1072 60.4089 80.2124 61.2198 78.9744 61.9751C78.1491 62.4802 76.7999 62.9435 74.9313 63.3698C73.0628 63.7915 71.2685 64.0047 69.5483 64.0047C66.4279 64.0047 64.1699 63.8564 62.7743 63.5598C60.2288 63.0316 58.2351 62.3921 56.7885 61.6369C55.3465 60.8816 54.1967 59.927 53.3482 58.7825C52.866 58.1153 52.6249 57.4434 52.6249 56.753C52.6249 55.7429 53.0932 54.8625 54.0344 54.1072C55.3883 53.0275 59.2412 51.1046 65.5933 48.3336L65.5979 48.329ZM57.5164 59.3293C58.8008 60.497 60.507 61.3449 62.6398 61.8732C63.0061 61.9658 63.3492 62.0678 63.6738 62.1836C64.0864 62.2995 64.7866 62.4246 65.7741 62.5636C67.2161 62.6331 68.4448 62.6655 69.4556 62.6655C71.5188 62.6655 73.4847 62.3319 75.3533 61.6693C77.2218 61.0067 78.4412 60.3163 79.0161 59.6073C79.4056 59.1486 79.6003 58.5508 79.6003 57.8187C79.6003 56.5584 78.8678 55.298 77.398 54.0377C76.2991 53.1202 74.0597 52.022 70.6889 50.7385C69.1774 50.1408 67.9394 49.6403 66.975 49.2279C65.4403 49.733 63.4466 50.6505 60.9892 51.9757C59.6817 52.6846 58.6895 53.3519 58.0126 53.9682C57.3356 54.5891 56.9647 54.9644 56.8951 55.1034C56.6169 55.6548 56.4825 56.2155 56.4825 56.7901C56.4825 57.777 56.8256 58.625 57.5164 59.3339V59.3293ZM70.6889 39.0478C71.8805 38.8671 72.8912 38.4315 73.7166 37.7457C74.106 37.4492 74.7598 36.5271 75.6778 34.9841C76.5958 33.4411 77.2728 32.051 77.7086 30.8138C78.7194 27.9548 79.2201 25.6102 79.2201 23.7799C79.2201 22.5427 78.9141 21.5882 78.3067 20.9163C77.6993 20.2398 76.925 19.9062 75.9838 19.9062C74.9731 19.9062 73.9994 20.3371 73.0628 21.1943C72.1216 22.0516 70.9949 24.1506 69.6735 27.4915C68.3567 30.8323 67.6937 33.4272 67.6937 35.2806C67.6937 36.2398 67.9811 37.0785 68.5514 37.7874C69.1264 38.4964 69.8358 38.9181 70.6842 39.0571L70.6889 39.0478Z" fill="black"/>
        <path d="M112.154 41.967C112.293 42.2636 112.362 42.4814 112.362 42.6204C112.362 42.9633 112.084 43.5703 111.537 44.4414C110.827 45.5859 110.035 46.4246 109.163 46.9528C108.611 47.2957 107.855 47.4672 106.891 47.4672C105.24 47.4672 104.002 46.9621 103.177 45.9566C102.672 45.3588 102.319 44.2977 102.111 42.7594L98.2578 45.4423C96.9039 46.2207 95.87 46.7119 95.1606 46.9204C94.0153 47.2169 92.6383 47.3652 91.034 47.3652C89.8656 47.3652 88.9429 47.0177 88.266 46.318C87.5891 45.6183 87.2506 44.7194 87.2506 43.6212C87.2506 42.0412 88.2197 40.1506 90.1624 37.9496C92.1051 35.7487 94.7433 33.9508 98.0723 32.5514C100.418 31.5645 101.851 30.9343 102.38 30.6609C102.426 29.9056 102.449 29.0808 102.449 28.1865C102.449 25.2766 102.041 23.3073 101.225 22.274C100.409 21.2407 99.2407 20.7264 97.7246 20.7264C96.2084 20.7264 94.6552 21.3473 93.2735 22.5844C92.4204 23.3629 91.7759 24.8318 91.34 26.9818C91.201 27.5795 90.9413 28.219 90.5472 28.9047C89.5596 29.5488 88.7714 29.8685 88.1733 29.8685C87.6679 29.8685 87.2089 29.7203 86.7962 29.4237C86.569 29.2615 86.4531 29.0808 86.4531 28.8723C86.4531 28.2746 87.0883 26.9308 88.3634 24.8318C89.6338 22.7327 91.2427 21.1666 93.1761 20.124C95.1142 19.0814 96.8065 18.5624 98.2485 18.5624C100.219 18.5624 101.689 18.7385 102.653 19.0953C103.618 19.4521 104.461 20.073 105.199 20.9673C105.931 21.8616 106.381 22.8347 106.539 23.8911C106.631 24.3962 106.678 26.1941 106.678 29.2893L106.576 34.7524L106.608 38.742C106.608 39.2702 106.594 39.7151 106.576 40.0811C106.553 40.7437 106.543 41.2395 106.543 41.5593C106.543 42.3145 106.761 42.9215 107.197 43.3803C107.633 43.839 108.148 44.0661 108.746 44.0661C109.617 44.0661 110.364 43.6305 110.98 42.7594L111.393 42.208C111.509 42.1385 111.759 42.0597 112.149 41.967H112.154ZM102.074 40.9708C102.231 38.0608 102.315 36.0081 102.315 34.8173C102.315 34.201 102.282 33.3623 102.213 32.3105C100.673 32.8619 99.0367 33.6959 97.3119 34.8173C95.5871 35.9386 94.2147 37.2361 93.2039 38.7003C92.4667 39.7568 92.1004 40.753 92.1004 41.689C92.1004 42.625 92.4065 43.3293 93.0138 43.9224C93.6212 44.5202 94.3863 44.8167 95.3089 44.8167C96.023 44.8167 96.8854 44.5665 97.8961 44.0614C99.2315 43.3988 100.622 42.3655 102.074 40.9661V40.9708Z" fill="black"/>
        <path d="M126.374 3.29917C125.748 2.88677 124.835 2.68289 123.629 2.68289H123.073L123.142 1.68666C123.787 1.52448 125.062 1.42254 126.953 1.3762C127.348 1.3762 128.813 1.29743 131.358 1.13525C131.289 1.47814 130.579 3.6884 129.23 7.77064L126.647 15.8471C126.416 16.7182 125.831 18.5393 124.899 21.3102L121.097 33.5477L126.003 26.9818C128.868 23.5899 130.547 21.667 131.043 21.2082C132.262 20.1101 133.343 19.3594 134.288 18.9563C135.234 18.5578 136.069 18.3539 136.792 18.3539C137.627 18.3539 138.383 18.757 139.059 19.5587C139.917 20.6151 140.344 21.8523 140.344 23.2702C140.344 26.2496 139.579 29.3496 138.044 32.57C136.514 35.7903 134.4 38.7281 131.697 41.3878C129.949 43.1069 127.385 44.7565 124.009 46.3365C122.08 47.2308 120.527 47.6757 119.349 47.6757C118.01 47.6757 116.962 47.3189 116.201 46.6099C115.441 45.901 115.061 45.053 115.061 44.066C115.061 42.8057 115.306 41.3415 115.793 39.6687L117.611 33.2789L124.315 12.9789C125.108 10.4118 125.85 8.21547 126.55 6.38518C126.828 5.65306 126.963 5.02289 126.963 4.49929C126.963 4.1564 126.768 3.7579 126.378 3.29917H126.374ZM120.782 46.2346C121.505 46.2346 122.261 45.9936 123.049 45.5117C124.607 44.6174 126.36 43.0235 128.317 40.7344C130.269 38.4408 131.609 36.7032 132.332 35.5077C133.82 33.0101 135.04 30.5219 135.99 28.0475C136.713 26.2126 137.075 24.6093 137.075 23.2331C137.075 22.5937 136.866 22.0701 136.449 21.6716C136.032 21.2731 135.494 21.0692 134.84 21.0692C134.186 21.0692 133.519 21.287 132.772 21.7226C131.326 22.5937 129.624 24.2155 127.658 26.5925C124.542 30.3412 122.53 32.9823 121.612 34.5161C120.699 36.0498 119.948 37.8013 119.359 39.7799C118.775 41.7585 118.478 43.0791 118.478 43.7417C118.478 44.4414 118.691 45.0345 119.122 45.5117C119.553 45.9936 120.105 46.23 120.782 46.23V46.2346Z" fill="black"/>
        <path d="M176.36 44.8955C176.898 44.6453 177.399 44.4831 177.853 44.3997C178.994 44.2143 179.657 44.0568 179.847 43.9317C180.158 43.7463 180.366 43.5193 180.468 43.2459C180.594 42.8335 180.654 41.916 180.654 40.5074V37.7967L180.686 35.5865L180.594 32.3151V30.3551C180.594 29.0484 180.492 27.978 180.283 27.1486C180.2 26.8381 179.94 26.5277 179.504 26.2126C178.924 25.7956 177.937 25.3924 176.546 24.9986L176.513 23.5065C176.782 23.4231 177.028 23.3675 177.246 23.3351C177.464 23.3027 178.299 23.1034 179.75 22.7281C180.89 22.3157 181.628 22.0238 181.961 21.857C182.063 21.7967 182.23 21.6994 182.458 21.5789C182.708 21.3704 182.986 21.1666 183.297 20.958C183.918 20.5225 184.665 19.7672 185.536 18.6875L187.215 18.5624L187.15 22.0747C187.108 22.4269 187.089 22.7096 187.089 22.9134C187.089 23.0802 187.108 23.5575 187.15 24.3452C188.87 22.8532 190.432 21.8153 191.842 21.2361C193.683 20.4669 195.435 20.0869 197.09 20.0869C199.038 20.0869 200.744 20.5688 202.214 21.5372C203.684 22.501 204.648 23.6178 205.102 24.8874C205.557 26.1524 205.784 28.7101 205.784 32.5514L205.659 42.7084C205.659 43.1857 205.742 43.5795 205.909 43.8946C206.118 44.0336 206.688 44.1819 207.62 44.3348L209.146 44.6267C209.331 44.8908 209.424 45.2198 209.424 45.6044C209.424 45.85 209.414 46.1883 209.391 46.6146L203.294 46.179L201.491 46.2392H200.058L195.95 46.5173H194.893C194.87 46.2578 194.86 46.0539 194.86 45.9149C194.86 45.5535 194.883 45.1642 194.925 44.7426C195.217 44.6823 195.941 44.5758 197.104 44.4321C197.415 44.3904 197.758 44.3163 198.134 44.2143C198.546 44.0475 198.787 43.8807 198.848 43.7139C199.015 43.3617 199.098 42.6852 199.098 41.689C199.098 39.9467 199.089 38.6076 199.066 37.6716L199.098 34.062C199.098 29.6832 198.82 26.954 198.259 25.8743C197.471 24.3174 196.293 23.539 194.721 23.539C193.562 23.539 192.361 23.8355 191.123 24.4286C189.881 25.0217 188.601 25.916 187.275 27.1208L187.215 27.649L187.275 29.6091L187.215 31.6942L187.34 36.6707L187.275 37.4492C187.275 40.8271 187.409 42.7362 187.683 43.1718C187.956 43.6073 188.99 44.0939 190.789 44.6267C190.854 44.9789 190.882 45.2384 190.882 45.4052C190.882 45.6554 190.808 46.04 190.66 46.5543C190.015 46.5775 189.473 46.5868 189.037 46.5868C188.601 46.5868 187.915 46.5173 186.978 46.3783L183.64 46.3087C181.975 46.3087 179.578 46.3829 176.439 46.5265C176.356 46.3226 176.314 46.1095 176.314 45.8824C176.314 45.7203 176.323 45.3913 176.347 44.9048L176.36 44.8955Z" fill="black"/>
        <path d="M158.667 17.4874C159.443 17.4874 160.072 16.8588 160.072 16.0834C160.072 15.308 159.443 14.6794 158.667 14.6794C157.892 14.6794 157.263 15.308 157.263 16.0834C157.263 16.8588 157.892 17.4874 158.667 17.4874Z" fill="#D5672E"/>
        <path d="M156.479 0.027832L158.13 11.3386H159.205L160.861 0.027832H156.479Z" fill="#D5672E"/>
        <path d="M145.769 6.13501L154.944 12.965L155.7 12.2097L148.866 3.03973L145.769 6.13501Z" fill="#D5672E"/>
        <path d="M168.469 3.03973L161.635 12.2097L162.395 12.965L171.566 6.13501L168.469 3.03973Z" fill="#D5672E"/>
        <path d="M160.861 32.1391L159.205 20.8283H158.13L156.479 32.1391H160.861Z" fill="#D5672E"/>
        <path d="M142.565 18.2705L153.887 16.6209V15.5459L142.565 13.8917V18.2705Z" fill="#D5672E"/>
        <path d="M174.77 13.8917L163.448 15.5459V16.6209L174.77 18.2705V13.8917Z" fill="#D5672E"/>
        <path d="M148.866 29.4423L155.7 20.2769L154.944 19.517L145.769 26.347L148.866 29.4423Z" fill="#D5672E"/>
        <path d="M171.566 26.347L162.395 19.517L161.635 20.2769L168.469 29.4423L171.566 26.347Z" fill="#D5672E"/>
        <path d="M234.679 21.8245L238.393 9.96699C238.555 9.46192 238.782 8.63713 239.079 7.49262C239.125 7.26557 239.172 7.08022 239.218 6.94121C239.7 5.43991 239.942 4.48538 239.942 4.07298C239.942 3.77643 239.793 3.50304 239.496 3.25282C238.875 2.77556 237.832 2.36316 236.367 2.02491L235.643 1.82103L235.917 0.82479C239.816 0.82479 242.408 0.560672 243.692 0.0324356L244.105 0C244.379 0 244.68 0.0463365 245 0.13901C244.838 0.82479 244.726 1.29742 244.657 1.54764L244.624 1.75615L241.773 10.2821L238.337 21.2824C237.721 23.1636 237.308 24.5491 237.099 25.4434C236.803 26.7732 236.455 28.0104 236.07 29.1549L231.192 43.7648L231.294 43.9734C232.12 43.8344 234.225 41.8975 237.614 38.1628C237.98 38.3249 238.254 38.5288 238.439 38.7837C236.538 41.6473 234.405 43.9595 232.041 45.7249C230.344 46.9852 229.069 47.6154 228.225 47.6154C228.039 47.6154 227.789 47.5691 227.469 47.4764C227.33 47.2679 227.261 47.0872 227.261 46.925C227.261 46.2392 227.65 44.6452 228.429 42.1477C229.208 39.6502 229.746 37.8384 230.047 36.7171C229.449 37.2916 228.573 38.2415 227.418 39.5714C225.22 42.1153 222.907 44.2097 220.468 45.8593C218.715 47.0501 217.13 47.6478 215.711 47.6478C214.937 47.6478 214.325 47.3281 213.879 46.684C213.17 45.7017 212.813 44.3116 212.813 42.523C212.813 40.2989 213.305 38.0098 214.287 35.6467C214.867 34.2056 215.831 32.3475 217.185 30.077C218.535 27.8065 220.046 25.8326 221.711 24.146C223.375 22.4593 224.961 21.2453 226.468 20.4993C227.975 19.7579 229.342 19.3826 230.571 19.3826C231.531 19.3826 232.379 19.6096 233.117 20.0683C233.608 20.3649 234.132 20.9487 234.688 21.8199L234.679 21.8245ZM219.457 44.0985C220.343 44.0985 221.372 43.6722 222.55 42.8242C224.697 41.2673 226.718 39.2007 228.614 36.6198C230.511 34.0434 231.837 31.4718 232.602 28.9047C233.367 26.3377 233.747 24.8132 233.747 24.3313C233.747 23.5992 233.469 22.8995 232.917 22.2369C232.365 21.5697 231.855 21.2407 231.387 21.2407C230.566 21.2407 229.574 21.5372 228.415 22.135C227.251 22.7327 226.027 23.7521 224.743 25.1932C224.01 25.9948 222.893 27.6675 221.386 30.2114C219.879 32.7553 218.762 34.9424 218.029 36.7773C217.297 38.6122 216.93 40.0209 216.93 41.0032C216.93 41.9855 217.167 42.7223 217.644 43.2737C218.122 43.8251 218.725 44.0985 219.457 44.0985Z" fill="black"/>
    </g>
    <defs>
        <clipPath id="clip0_17_136">
            <rect width="245" height="64" fill="white"/>
        </clipPath>
    </defs>
</svg>