<svg width="38" height="38" viewBox="0 0 38 38" fill="none" xmlns="http://www.w3.org/2000/svg">
    <path d="M18.2537 0C18.7004 0 19.1419 0 19.5887 0C19.8147 0.0473619 20.0407 0.105249 20.2719 0.142086C23.3939 0.699903 25.6592 3.35743 25.6592 6.53067C25.6592 7.2832 25.4858 8.04099 25.3806 8.84614C26.148 9.09874 26.9942 9.38817 27.8509 9.64603C28.0244 9.69866 28.2451 9.69866 28.4133 9.64603C31.1937 8.75142 33.9688 7.85154 36.7386 6.92536C37.5375 6.65697 38 7.02534 38 7.84102C37.979 16.5661 37.9842 25.2965 37.9842 34.0216C37.9842 34.7426 37.8791 34.8952 37.1959 35.1215C34.3261 36.0582 31.4564 36.9844 28.5867 37.9263C28.2661 38.0316 27.9771 38.0316 27.6512 37.9263C21.854 36.0319 16.0567 34.1426 10.249 32.264C10.0019 32.185 9.68134 32.1955 9.43432 32.2745C6.69075 33.1533 3.94718 34.0479 1.20887 34.9425C0.557137 35.153 0.367925 35.0899 -0.010498 34.5478C1.37091e-05 25.4544 1.37091e-05 16.3662 1.37091e-05 7.27794C0.231272 7.10954 0.441507 6.87799 0.699045 6.78853C3.57401 5.83077 6.45949 4.90458 9.33971 3.95735C9.69711 3.84157 10.0282 3.83105 10.3856 3.95735C11.1109 4.20994 11.852 4.44149 12.5931 4.68356C12.6351 4.56779 12.6667 4.48885 12.6982 4.40992C13.5444 2.22075 15.0528 0.768315 17.3549 0.189447C17.6545 0.115773 17.9541 0.0631491 18.2537 0ZM27.3201 24.7597C27.3674 24.6492 27.3779 24.6387 27.3779 24.6229C27.3779 20.1814 27.3831 15.7347 27.3779 11.2932C27.3779 11.1932 27.2465 11.0406 27.1414 11.0037C26.4318 10.7564 25.7118 10.5459 25.0022 10.2986C24.7552 10.2144 24.6448 10.2565 24.5082 10.4828C24.0089 11.2932 23.5043 12.1036 22.9524 12.8719C22.3848 13.6613 21.7488 14.4085 21.1392 15.1768C21.2916 15.4031 21.4545 15.6189 21.5912 15.8504C22.2481 16.9924 22.1851 18.2922 21.423 19.2605C20.7134 20.1709 19.4415 20.534 18.2011 20.1446C17.5336 19.9341 16.8871 19.6499 16.2249 19.4131C15.8412 19.2763 15.4576 19.15 15.0634 19.0447C14.6849 18.9447 14.3591 19.0553 14.091 19.35C13.8282 19.6394 13.844 19.9867 14.0069 20.2867C14.2855 20.7919 14.6271 21.2602 14.9372 21.7444C15.1685 22.1075 15.447 22.4495 15.6047 22.8442C16.1618 24.2493 15.3209 25.707 13.844 26.0017C13.1397 26.1437 12.467 26.0122 11.8047 25.7964C11.4105 25.6701 11.0268 25.507 10.6116 25.3491C10.6116 27.112 10.6116 28.8486 10.6221 30.58C10.6221 30.6694 10.7483 30.8063 10.8429 30.8378C11.4578 31.0589 12.0833 31.2536 12.7035 31.4535C14.338 31.985 15.9779 32.5218 17.6072 33.0481C17.6387 33.0112 17.6598 32.9954 17.6703 32.9744C18.3378 31.3799 19.5782 30.6642 21.2653 30.5852C21.8382 30.5589 22.4216 30.4747 22.9787 30.3379C23.4202 30.2274 23.4833 30.0011 23.2257 29.6222C22.9997 29.2854 22.7107 28.996 22.4531 28.675C21.9118 28.0066 21.6017 27.2594 21.7068 26.3806C21.9223 24.4966 24.1508 23.0389 26.0324 24.2072C26.4213 24.4492 26.8838 24.5703 27.3201 24.7492V24.7597ZM1.51371 8.10414V27.633C3.86308 25.8859 6.18093 24.1703 9.10845 23.6336C9.11371 23.5441 9.12422 23.4862 9.12422 23.4231C9.12422 19.7236 9.12422 16.0188 9.11371 12.3193C9.11371 12.1773 9.01384 11.9878 8.89822 11.8984C7.11647 10.467 5.31896 9.04612 3.52671 7.63052C3.45313 7.57264 3.32173 7.52001 3.24289 7.54632C2.65423 7.72525 2.07609 7.91996 1.51371 8.10414ZM28.86 36.2108C28.9546 36.195 29.0282 36.195 29.0966 36.1687C31.488 35.3898 33.8741 34.611 36.2656 33.8374C36.4811 33.769 36.5073 33.648 36.5073 33.4585C36.5073 29.4275 36.5073 25.3912 36.5073 21.3602C36.5073 21.1234 36.4285 21.0497 36.2025 21.0076C34.7414 20.734 33.5903 21.2918 32.639 22.3548C32.1345 22.9179 31.6772 23.5125 31.1936 24.0967C30.6155 24.7966 30.0111 25.4754 29.1754 25.8648C28.8968 25.9964 28.8495 26.1543 28.8495 26.4279C28.86 29.5591 28.8495 32.6902 28.8495 35.8161C28.8495 35.9371 28.8495 36.0634 28.8495 36.2055L28.86 36.2108ZM36.4863 8.59881C33.9162 9.43554 31.3934 10.2565 28.8863 11.0722V24.3808C29.2332 24.0177 29.5275 23.7388 29.7903 23.4336C30.379 22.7337 30.9203 21.9917 31.5405 21.3234C32.8703 19.9025 34.4838 19.1921 36.4863 19.5289V8.59881ZM18.9895 15.3031C19.2681 14.9874 19.5046 14.7243 19.7358 14.4506C21.0551 12.9087 22.3533 11.3511 23.3046 9.54605C23.8827 8.44094 24.3032 7.30425 24.135 6.00443C23.8302 3.61529 21.8014 1.6524 19.3995 1.48927C15.4943 1.22615 12.735 5.13087 14.2224 8.57776C15.3314 11.1458 17.1657 13.1824 18.9842 15.3084L18.9895 15.3031ZM10.6116 13.1561C10.6116 16.6556 10.6116 20.0814 10.6221 23.5125C10.6221 23.602 10.722 23.7336 10.8061 23.7757C11.2528 23.9809 11.7049 24.1966 12.1726 24.3335C12.5931 24.4545 13.0451 24.5387 13.4761 24.5229C14.1173 24.5019 14.4484 23.9125 14.1751 23.3284C14.0437 23.0442 13.8072 22.8074 13.639 22.5337C13.2553 21.9022 12.7876 21.3023 12.5405 20.6235C11.9834 19.0868 13.1397 17.5449 14.7743 17.5292C15.5469 17.5239 16.2407 17.8186 16.945 18.087C17.5652 18.3238 18.1854 18.5816 18.8213 18.7606C19.4783 18.95 20.151 18.6185 20.4191 18.0607C20.6661 17.5397 20.5032 16.7661 20.0512 16.3819C19.9303 16.5188 19.8094 16.6609 19.6833 16.7977C19.2102 17.3239 18.7793 17.3344 18.3167 16.8029C17.7491 16.1662 17.2078 15.5084 16.6296 14.8769C16.493 14.7295 16.2827 14.6032 16.083 14.5664C15.405 14.4296 14.7217 14.3349 14.0385 14.2243C12.8664 14.0296 11.7311 13.7297 10.6116 13.1613V13.1561ZM27.3726 26.37C26.6158 26.0648 25.922 25.7859 25.2282 25.5123C25.0495 25.4386 24.8603 25.3439 24.6764 25.3333C24.1035 25.2965 23.683 25.5859 23.3834 26.049C23.1049 26.4858 23.1311 26.9489 23.3834 27.3857C23.5201 27.6172 23.725 27.8067 23.8775 28.033C24.1771 28.4697 24.5292 28.8855 24.7342 29.3591C25.1179 30.2379 24.813 31.101 23.9668 31.5377C23.4938 31.7798 22.9524 31.9114 22.4268 32.0114C21.7751 32.1324 21.0971 32.1166 20.4506 32.2587C19.7779 32.406 19.3259 32.8744 19.0894 33.548C21.8645 34.4479 24.6028 35.3425 27.3726 36.2424V26.37ZM9.12947 25.0965C8.33058 25.3965 7.57373 25.628 6.86419 25.9543C4.93528 26.8489 3.30596 28.2066 1.60831 29.4591C1.54524 29.5064 1.49268 29.617 1.49268 29.7011C1.48743 30.8747 1.49268 32.0482 1.49268 33.2533C1.62408 33.2165 1.7292 33.1954 1.83432 33.1586C4.16267 32.4008 6.49102 31.643 8.82463 30.8957C9.06115 30.822 9.1505 30.7221 9.14524 30.4589C9.12947 28.8907 9.13999 27.3173 9.13999 25.7491C9.13999 25.5649 9.13999 25.386 9.13999 25.0965H9.12947ZM10.6116 5.62554C10.6116 7.44634 10.6221 9.20399 10.6011 10.9616C10.6011 11.2984 10.722 11.4774 10.9848 11.6352C12.2042 12.3825 13.5707 12.6246 15.0055 12.8614C13.5865 10.8143 12.2094 8.79878 12.3145 6.17809C11.7574 5.99391 11.2108 5.81498 10.6116 5.62027V5.62554ZM9.11371 10.1144V5.6308C7.76295 6.07284 6.43321 6.4991 5.02989 6.95693C6.40693 8.01994 7.73141 9.04611 9.11371 10.1091V10.1144Z" fill="white"/>
</svg>