<svg width="33" height="37" viewBox="0 0 33 37" fill="none" xmlns="http://www.w3.org/2000/svg">
    <g clip-path="url(#clip0_285_89)">
        <path d="M1.83531e-05 16.4022C1.83531e-05 11.6062 1.83531e-05 6.81018 1.83531e-05 2.01419C1.83531e-05 0.731536 0.729154 0 2.02834 0C9.23684 0 16.4453 0 23.6505 0C24.9497 0 25.6788 0.731536 25.6822 2.00762C25.6822 2.49313 25.6921 2.97863 25.6788 3.46086C25.6722 3.68065 25.7385 3.77906 25.9639 3.85123C27.8298 4.45811 29.6891 5.08467 31.5484 5.70467C32.8012 6.12129 33.2652 7.02013 32.8509 8.26341C32.0588 10.6384 31.2634 13.0135 30.4679 15.3885C28.9036 20.0533 27.3327 24.7181 25.7882 29.3894C25.659 29.7765 25.6788 30.2226 25.6921 30.6392C25.7186 31.4298 25.4999 32.0793 24.7939 32.5222C24.7045 32.578 24.6481 32.7158 24.6117 32.8273C24.2902 33.7786 23.972 34.7299 23.6571 35.6845C23.3025 36.7507 22.3314 37.2362 21.2444 36.8819C17.2408 35.5763 13.2338 34.2641 9.2269 32.9651C8.95844 32.8798 8.66679 32.8273 8.38507 32.8273C6.27721 32.8174 4.16603 32.8207 2.05485 32.8207C0.745725 32.8207 -0.0032959 32.0793 -0.0032959 30.7901C-0.0032959 25.9941 -0.0032959 21.1982 -0.0032959 16.4022H1.83531e-05ZM24.489 16.389C24.489 11.616 24.489 6.84626 24.489 2.07323C24.489 1.34826 24.3101 1.16783 23.5776 1.16783C16.4188 1.16783 9.26335 1.16783 2.10457 1.16783C1.37212 1.16783 1.19315 1.34826 1.19315 2.06995C1.19315 11.6259 1.19315 21.1818 1.19315 30.7377C1.19315 31.4528 1.38206 31.6398 2.10457 31.6398C9.26335 31.6398 16.4188 31.6398 23.5776 31.6398C24.3034 31.6398 24.489 31.4561 24.489 30.7409C24.489 25.9581 24.489 21.1719 24.489 16.389ZM25.7153 5.06499V25.8104C25.775 25.6792 25.8048 25.6267 25.8247 25.571C27.7933 19.6859 29.762 13.8008 31.7274 7.9124C31.9196 7.33833 31.7572 7.01356 31.1772 6.82658C29.9874 6.43949 28.7976 6.06224 27.6077 5.67843C26.9813 5.47504 26.3549 5.27166 25.7153 5.06499ZM12.8726 32.8371C12.8659 32.8568 12.8626 32.8765 12.856 32.8962C13.5023 33.1061 14.1486 33.3161 14.7948 33.526C17.0253 34.2543 19.2591 34.9858 21.4896 35.7141C22.1293 35.924 22.3778 35.7994 22.5933 35.1662C22.6695 34.9432 22.7457 34.7201 22.8186 34.497C23.0009 33.9492 23.1799 33.4046 23.3655 32.8371H12.8726Z" fill="#D5672E"/>
        <path d="M12.8195 12.9183C10.0587 12.9183 7.29466 12.9183 4.53389 12.9183C4.40794 12.9183 4.27869 12.9315 4.15937 12.9019C3.85446 12.8298 3.68875 12.6329 3.69207 12.3147C3.69869 11.9965 3.87103 11.8063 4.17926 11.7472C4.28863 11.7243 4.40463 11.7374 4.51731 11.7374C10.0654 11.7374 15.6167 11.7374 21.1648 11.7374C21.2642 11.7374 21.367 11.7308 21.4664 11.7439C21.7945 11.7899 22.0099 12.0457 21.9934 12.3639C21.9735 12.7018 21.7746 12.8757 21.4432 12.915C21.3305 12.9282 21.2178 12.9183 21.1051 12.9183C18.3444 12.9183 15.5803 12.9183 12.8195 12.9183Z" fill="#D5672E"/>
        <path d="M12.8427 27.9887C15.6167 27.9887 18.3908 27.9887 21.1681 27.9887C21.3272 27.9887 21.4962 28.0018 21.6454 28.0543C21.9138 28.1527 22.0199 28.3725 21.9934 28.6481C21.9668 28.9335 21.7912 29.0942 21.5194 29.1533C21.4233 29.1762 21.3206 29.1664 21.2178 29.1664C15.63 29.1664 10.0455 29.1664 4.45766 29.1664C4.35823 29.1664 4.25217 29.1762 4.15937 29.15C3.85446 29.0745 3.68875 28.881 3.69207 28.5628C3.69869 28.2446 3.87103 28.0543 4.17926 27.9953C4.30189 27.9723 4.43114 27.9854 4.55377 27.9854C7.31454 27.9854 10.0786 27.9854 12.8394 27.9854L12.8427 27.9887Z" fill="#D5672E"/>
        <path d="M12.8129 17.0221C10.0257 17.0221 7.23838 17.0287 4.45109 17.0123C4.22904 17.0123 3.9407 16.9139 3.79818 16.7597C3.51647 16.4546 3.73521 15.9527 4.14949 15.8609C4.28206 15.8313 4.42458 15.8412 4.56046 15.8412C10.0721 15.8412 15.5837 15.8412 21.0953 15.8412C21.1582 15.8412 21.2212 15.8412 21.2842 15.8412C21.7316 15.851 21.9934 16.0708 21.9934 16.4382C21.9934 16.8155 21.7548 17.0221 21.2875 17.0221C18.4637 17.0221 15.6367 17.0221 12.8129 17.0221Z" fill="#D5672E"/>
        <path d="M12.8162 7.70251C15.6267 7.70251 18.4405 7.70251 21.251 7.70251C21.6918 7.70251 21.9337 7.86326 21.9867 8.17818C22.0431 8.50294 21.8707 8.76866 21.536 8.84083C21.3802 8.87363 21.2112 8.87691 21.0521 8.87691C15.5803 8.87691 10.1052 8.87691 4.63332 8.87691C4.48418 8.87691 4.33173 8.87691 4.18259 8.85395C3.8379 8.79162 3.65231 8.55543 3.69208 8.22082C3.72853 7.8895 3.92076 7.7058 4.26544 7.7058C5.12052 7.7058 5.97228 7.7058 6.82736 7.7058C8.82254 7.7058 10.8177 7.7058 12.8162 7.7058V7.70251Z" fill="#D5672E"/>
        <path d="M12.8527 21.0604C10.0422 21.0604 7.22842 21.0604 4.41794 21.0604C3.92743 21.0604 3.69874 20.8799 3.69212 20.506C3.68549 20.1943 3.828 19.9778 4.14948 19.9221C4.29531 19.8958 4.44776 19.8892 4.59691 19.8892C10.0952 19.8892 15.5903 19.8892 21.0886 19.8892C21.1781 19.8892 21.2643 19.886 21.3504 19.8925C21.7647 19.9253 22.0067 20.1648 21.9901 20.5224C21.9735 20.8701 21.7515 21.0604 21.3206 21.0604C18.4969 21.0604 15.6731 21.0604 12.8494 21.0604H12.8527Z" fill="#D5672E"/>
        <path d="M12.8327 23.9569C15.6333 23.9569 18.4305 23.9537 21.2311 23.9635C21.4299 23.9635 21.6719 24.016 21.8144 24.1341C22.169 24.426 22.0099 24.9739 21.5592 25.0887C21.4167 25.1248 21.2609 25.1313 21.1117 25.1313C15.6001 25.1313 10.0919 25.1313 4.58026 25.1313C4.49078 25.1313 4.4046 25.1346 4.31843 25.1281C3.8909 25.092 3.67216 24.8689 3.69204 24.4949C3.71193 24.1439 3.93398 23.9569 4.36152 23.9569C7.18526 23.9569 10.009 23.9569 12.8327 23.9569Z" fill="#D5672E"/>
        <path d="M10.1781 4.80916C8.2459 4.80916 6.31369 4.80916 4.38148 4.80916C3.92412 4.80916 3.69875 4.62218 3.69212 4.25477C3.68549 3.94313 3.82469 3.72662 4.14949 3.66757C4.29531 3.64133 4.44777 3.63477 4.59691 3.63477C8.32213 3.63477 12.0473 3.63477 15.7759 3.63477C15.8886 3.63477 16.0012 3.63477 16.1139 3.64789C16.4984 3.69709 16.6873 3.90704 16.6707 4.26133C16.6542 4.61233 16.452 4.8026 16.051 4.80588C14.3574 4.81244 12.6638 4.80588 10.9702 4.80588C10.7084 4.80588 10.4432 4.80588 10.1814 4.80588L10.1781 4.80916Z" fill="#D5672E"/>
    </g>
    <defs>
        <clipPath id="clip0_285_89">
            <rect width="33" height="37" fill="white"/>
        </clipPath>
    </defs>
</svg>