<svg width="35" height="35" viewBox="0 0 35 35" fill="none" xmlns="http://www.w3.org/2000/svg">
    <path d="M17.5 19.0303C18.3433 19.0303 19.0268 18.3452 19.0268 17.5C19.0268 16.6549 18.3433 15.9697 17.5 15.9697C16.6568 15.9697 15.9733 16.6549 15.9733 17.5C15.9733 18.3452 16.6568 19.0303 17.5 19.0303Z" fill="#D5672E"/>
    <path d="M15.1217 0L16.9155 12.3283H18.0846L19.8834 0H15.1217Z" fill="#D5672E"/>
    <path d="M3.48181 6.65657L13.4537 14.101L14.2751 13.2778L6.84778 3.28284L3.48181 6.65657Z" fill="#D5672E"/>
    <path d="M28.1522 3.28284L20.7249 13.2778L21.5512 14.101L31.5181 6.65657L28.1522 3.28284Z" fill="#D5672E"/>
    <path d="M19.8834 35L18.0846 22.6718H16.9155L15.1217 35H19.8834Z" fill="#D5672E"/>
    <path d="M0 19.8838L12.3049 18.0858V16.9141L0 15.1111V19.8838Z" fill="#D5672E"/>
    <path d="M35 15.1111L22.6951 16.9141V18.0858L35 19.8838V15.1111Z" fill="#D5672E"/>
    <path d="M6.84778 32.0606L14.2751 22.0707L13.4537 21.2424L3.48181 28.6869L6.84778 32.0606Z" fill="#D5672E"/>
    <path d="M31.5181 28.6869L21.5512 21.2424L20.7249 22.0707L28.1522 32.0606L31.5181 28.6869Z" fill="#D5672E"/>
</svg>