<svg width="15" height="29" viewBox="0 0 15 29" fill="none" xmlns="http://www.w3.org/2000/svg">
    <g clip-path="url(#clip0_286_123)">
        <path d="M12.0456 15.0224C12.1042 16.6839 11.5589 18.2406 11.143 19.8213C10.8411 20.9709 10.5515 22.1235 10.6008 23.3299C10.6562 24.7699 11.411 25.5153 12.9051 25.5303C13.4104 25.5363 13.9187 25.4465 14.4239 25.4465C14.5841 25.4465 14.8152 25.5542 14.883 25.677C14.9538 25.8027 14.9261 26.0602 14.8337 26.1799C13.2718 28.2007 10.2619 29.5508 7.53238 28.6318C5.51143 27.9522 4.47939 26.4464 3.94643 24.5573C3.29332 22.2282 3.7431 19.986 4.55641 17.7616C4.97847 16.6061 5.32351 15.4146 5.57305 14.2141C5.80718 13.0855 5.33891 12.4718 4.17748 12.4448C3.12696 12.4209 2.07335 12.6424 1.01975 12.7562C0.942732 12.7651 0.862633 12.822 0.791777 12.81C0.557643 12.7771 0.197199 12.7891 0.126342 12.6604C0.0308403 12.4867 0.0708896 12.1245 0.206441 11.9688C0.643903 11.4689 1.09061 10.933 1.64513 10.5738C3.74002 9.22658 6.00743 8.66377 8.472 9.48704C10.5607 10.1846 11.9501 12.0377 12.0395 14.1842C12.0518 14.4626 12.0395 14.741 12.0395 15.0194L12.0456 15.0224ZM1.88235 11.5707C2.65253 11.5257 3.33337 11.4389 4.01112 11.4539C5.84723 11.4958 6.85771 12.6274 6.52191 14.3787C6.28777 15.5972 5.92117 16.8036 5.49911 17.9742C4.79055 19.941 4.33768 21.9139 4.78746 24.0035C5.41593 26.9224 7.66485 28.4462 10.5145 27.8474C11.4973 27.6409 12.3722 27.2038 13.2132 26.4913C12.8959 26.4763 12.6957 26.4673 12.4923 26.4553C11.1707 26.3805 10.0986 25.6081 9.79055 24.4077C9.64883 23.8478 9.56565 23.2341 9.63959 22.6683C9.78747 21.5247 10.0154 20.3871 10.2958 19.2675C10.6994 17.6658 11.22 16.0852 11.0906 14.4027C10.9859 13.0016 10.5022 11.7712 9.26374 10.945C8.19165 10.2295 6.99942 9.94208 5.69319 10.0948C4.30995 10.2564 3.0561 10.7115 1.87619 11.5677L1.88235 11.5707Z" fill="#D5672E" stroke="#D5672E" stroke-width="0.5" stroke-miterlimit="10"/>
        <path d="M11.1891 3.68827C11.1891 5.68507 9.52552 7.32262 7.47992 7.3316C5.44973 7.34058 3.74917 5.68806 3.74609 3.70623C3.74609 1.70643 5.4066 0.0838473 7.46144 0.0748662C9.51319 0.0658851 11.186 1.68847 11.1891 3.68827ZM10.2402 3.68527C10.2341 2.20339 9.01412 1.02387 7.47992 1.02088C5.92724 1.01788 4.69187 2.21237 4.69803 3.71222C4.7042 5.17913 5.94572 6.3826 7.46144 6.39158C8.99255 6.40056 10.2464 5.17913 10.2402 3.68527Z" fill="#D5672E" stroke="#D5672E" stroke-width="0.5" stroke-miterlimit="10"/>
    </g>
    <defs>
        <clipPath id="clip0_286_123">
            <rect width="15" height="29" fill="white"/>
        </clipPath>
    </defs>
</svg>