<svg width="36" height="36" viewBox="0 0 36 36" fill="none" xmlns="http://www.w3.org/2000/svg">
    <path d="M30.4572 11.7794C30.3065 11.2445 30.0191 10.7572 29.6227 10.3645C29.2263 9.97187 28.7343 9.68713 28.1944 9.53786C26.1678 9.00002 18.0116 9.00002 18.0116 9.00002C18.0116 9.00002 9.87596 8.98928 7.82878 9.53786C7.28883 9.68713 6.79687 9.97187 6.40047 10.3645C6.00408 10.7572 5.71664 11.2445 5.56594 11.7794C5.18178 13.8347 4.99239 15.9211 5.00023 18.0113C4.99387 20.0936 5.18326 22.172 5.56594 24.2195C5.71664 24.7544 6.00408 25.2417 6.40047 25.6344C6.79687 26.0271 7.28883 26.3118 7.82878 26.4611C9.8532 27 18.0116 27 18.0116 27C18.0116 27 26.1461 27 28.1944 26.4611C28.7343 26.3118 29.2263 26.0271 29.6227 25.6344C30.0191 25.2417 30.3065 24.7544 30.4572 24.2195C30.8319 22.1713 31.0133 20.0929 30.9991 18.0113C31.0148 15.9218 30.8334 13.8354 30.4572 11.7794ZM15.4084 21.8663V14.1444L22.197 18.0113L15.4084 21.8663Z" fill="black"/>
</svg>